<svg id="Layer_1" data-name="Layer 1" xmlns="http://www.w3.org/2000/svg" viewBox="0 0 1135.52 1135.5"><defs><style>.cls-1{fill:#f37024;}.cls-2{fill:#f9f9fa;}</style></defs><title>pdxcglogo</title><ellipse class="cls-1" cx="567.76" cy="567.75" rx="567.76" ry="567.75"/><path class="cls-2" d="M93.57,841,168.49,792l21.28,32.59A26.54,26.54,0,0,1,194,835.68a29.56,29.56,0,0,1-.58,11.22A31.08,31.08,0,0,1,188.85,857a27.71,27.71,0,0,1-7.74,7.63,30,30,0,0,1-10.23,4.27,30.33,30.33,0,0,1-10.92.34,27.58,27.58,0,0,1-10.31-3.8,26.21,26.21,0,0,1-8.31-8.22l-13.71-21-26.06,17Zm44.51-11.6,13.21,20.23a12.61,12.61,0,0,0,4.16,4.07,12.93,12.93,0,0,0,5.35,1.73,17.46,17.46,0,0,0,6-.49,20.36,20.36,0,0,0,6.16-2.78,18.65,18.65,0,0,0,5.06-4.71,15.9,15.9,0,0,0,2.59-5.59,15,15,0,0,0,.24-5.85,13.46,13.46,0,0,0-2-5.3L166,811.11Z"/><path class="cls-2" d="M145.11,915.91l65.12-61.37,22.57,24a50.62,50.62,0,0,1,10.91,16.72,40.52,40.52,0,0,1,2.7,16.84A39.85,39.85,0,0,1,242,928a51.65,51.65,0,0,1-10.64,14,50.74,50.74,0,0,1-15.63,10.34,39.28,39.28,0,0,1-32.87-1.06,51.68,51.68,0,0,1-15.15-11.39Zm76,15.23a39.92,39.92,0,0,0,8.06-10.38,28.05,28.05,0,0,0,3.31-11.28A27.59,27.59,0,0,0,230.76,898a32.38,32.38,0,0,0-7-11l-12.54-13.31-47,44.26,12.54,13.31a32.44,32.44,0,0,0,10.7,7.77A26.72,26.72,0,0,0,199,941.35a29,29,0,0,0,11.46-2.82A40.68,40.68,0,0,0,221.12,931.14Z"/><path class="cls-2" d="M273.54,918.24,273,961.91l41.75-12.81,12.86,9.63-54.39,15.94-.12,55-12.85-9.63.66-42-40.16,12.42-13-9.71,52.9-15.48-.07-56.75Z"/><path class="cls-2" d="M334.6,1013.08a46.42,46.42,0,0,1,22.72-23.39,42.64,42.64,0,0,1,35.54-.22q11.41,4.88,17.5,13.38a35,35,0,0,1,6.76,18.24l-13.49,2.32a23,23,0,0,0-5.25-14.45,25.83,25.83,0,0,0-5.15-4.74,33.35,33.35,0,0,0-5.85-3.26,26.51,26.51,0,0,0-12.58-2.3,27.68,27.68,0,0,0-11.3,3.32,32.78,32.78,0,0,0-9.16,7.46,38.34,38.34,0,0,0-6.24,9.94,36.21,36.21,0,0,0-2.93,12.32,33.18,33.18,0,0,0,1.47,12,30,30,0,0,0,5.68,10.31,25.63,25.63,0,0,0,9.74,7.11,30.64,30.64,0,0,0,6.63,1.94,24.66,24.66,0,0,0,7.29.24,27.56,27.56,0,0,0,7.27-1.89,23.63,23.63,0,0,0,6.83-4.34l8.54,10.92a27.86,27.86,0,0,1-9.2,5.73,39.75,39.75,0,0,1-10.78,2.45,45.68,45.68,0,0,1-11.31-.45,46.3,46.3,0,0,1-10.75-3.09A38.44,38.44,0,0,1,341.94,1062a46.44,46.44,0,0,1-8.53-15.09,47.76,47.76,0,0,1-2.49-17.1A46.17,46.17,0,0,1,334.6,1013.08Z"/><path class="cls-2" d="M450.07,1102.06a40.75,40.75,0,0,1-16.59-7.57,44.57,44.57,0,0,1-11.34-12.93,45.43,45.43,0,0,1-5.62-16.13,46.53,46.53,0,0,1,.53-17,45.1,45.1,0,0,1,6.92-16,47,47,0,0,1,12.1-12.19,44,44,0,0,1,15.8-6.8,41.77,41.77,0,0,1,18,.14,39.69,39.69,0,0,1,16.57,7.69,45.06,45.06,0,0,1,11.24,13.1,47.05,47.05,0,0,1,5.56,16.12,45.71,45.71,0,0,1-.49,16.86,45.08,45.08,0,0,1-6.92,16,46.22,46.22,0,0,1-12.08,12.13,44.7,44.7,0,0,1-15.72,6.75A41.33,41.33,0,0,1,450.07,1102.06Zm-18.48-50.49a37.49,37.49,0,0,0-.64,12.37,32.53,32.53,0,0,0,3.44,11.46,28.56,28.56,0,0,0,7.38,9,26.22,26.22,0,0,0,11.16,5.22,26,26,0,0,0,12.54-.16,28.42,28.42,0,0,0,10.54-5.37,34.13,34.13,0,0,0,7.79-9,36.78,36.78,0,0,0,4.45-11.15,36.34,36.34,0,0,0,.59-12.45,33,33,0,0,0-3.53-11.35,29,29,0,0,0-7.39-9,27.57,27.57,0,0,0-23.57-5,29.17,29.17,0,0,0-10.51,5.25,32.42,32.42,0,0,0-7.78,8.94A37.35,37.35,0,0,0,431.58,1051.57Z"/><path class="cls-2" d="M519.27,1113.2l1.93-89.46,32.91.7a50.61,50.61,0,0,1,19.58,3.95,40.5,40.5,0,0,1,13.9,9.88,39.83,39.83,0,0,1,8.25,14.36,51.66,51.66,0,0,1,2.5,17.39,50.74,50.74,0,0,1-3.6,18.39,39.29,39.29,0,0,1-23.81,22.68,51.71,51.71,0,0,1-18.74,2.81Zm64.17-43.5a40,40,0,0,0-1.74-13,28.05,28.05,0,0,0-5.72-10.27,27.6,27.6,0,0,0-9.39-6.82,32.4,32.4,0,0,0-12.75-2.67l-18.28-.39L534.16,1101l18.28.39a32.47,32.47,0,0,0,13-2.18,26.7,26.7,0,0,0,9.68-6.6,29,29,0,0,0,6-10.14A40.67,40.67,0,0,0,583.44,1069.7Z"/><path class="cls-2" d="M683.61,1090.15l1.89,12.33-62.87,9.67L609,1023.72l61.71-9.5,1.9,12.33-47.25,7.27,3.87,25.16,40.93-6.3,1.78,11.58-40.93,6.3,4.15,27Z"/><path class="cls-2" d="M799.29,1051.28q-6,15.19-20,21a38.15,38.15,0,0,1-17.09,3,45,45,0,0,1-16.59-4.14,48.17,48.17,0,0,1-14.06-10,45.92,45.92,0,0,1-13.21-31.7,46.07,46.07,0,0,1,2.91-16.78,43,43,0,0,1,9-14.32,41.81,41.81,0,0,1,14.66-10q12.05-5,22.32-3.5a35.36,35.36,0,0,1,17.87,7.91l-7.36,11.53A25.87,25.87,0,0,0,764,998.12a28.55,28.55,0,0,0-14.61,2.13,24.89,24.89,0,0,0-9.69,7,28.74,28.74,0,0,0-5.5,10.07,32.52,32.52,0,0,0-1.31,11.81,37.89,37.89,0,0,0,2.88,12.18,35.9,35.9,0,0,0,6.95,10.89,31.94,31.94,0,0,0,9.7,7.15,30,30,0,0,0,11.31,2.86,26.38,26.38,0,0,0,11.72-2.09q13-5.43,18.3-22l-3.64-8.72-18,7.49-4-9.65,29.3-12.22,17.41,41.76-11.33,4.73Z"/><path class="cls-2" d="M864.69,1011.95a24.15,24.15,0,0,0,8.55-9.06,22.58,22.58,0,0,0,2.42-10.35,29.94,29.94,0,0,0-2.21-10.81,55.67,55.67,0,0,0-5.53-10.48l-25.24-37.69,12.26-8.21L880.19,963a65.48,65.48,0,0,1,7.8,15.63,39.42,39.42,0,0,1,2.06,15.76,33.49,33.49,0,0,1-5,15q-4.39,7.19-13.29,13.15-9.22,6.18-17.64,7.34a33.48,33.48,0,0,1-15.8-1.4,40.19,40.19,0,0,1-13.6-8.1,66.5,66.5,0,0,1-11.06-12.76l-25.24-37.69,12.16-8.14,25.24,37.69a56.1,56.1,0,0,0,7.66,9.2,29.89,29.89,0,0,0,9.15,6.15,21.83,21.83,0,0,0,10.51,1.61A24.68,24.68,0,0,0,864.69,1011.95Z"/><path class="cls-2" d="M924.6,981.53l-59.28-66.85L876.27,905l59.28,66.85Z"/><path class="cls-2" d="M955.66,953.5l-66.58-59.77,9.77-10.89,57.29,51.43,33.25-37,9.28,8.33Z"/><path class="cls-2" d="M1012.13,887.72l-75.88-47.4L953.7,812.4a50.67,50.67,0,0,1,13.41-14.8,40.52,40.52,0,0,1,15.6-6.89,39.84,39.84,0,0,1,16.56.25,51.62,51.62,0,0,1,16.22,6.74,50.71,50.71,0,0,1,14,12.49,39.28,39.28,0,0,1,7.31,32.06,51.65,51.65,0,0,1-7.17,17.54Zm-4.54-77.39a40,40,0,0,0-12.08-5.16,28,28,0,0,0-11.75-.33,27.62,27.62,0,0,0-10.66,4.58,32.39,32.39,0,0,0-8.81,9.59l-9.69,15.51,54.72,34.18,9.69-15.51a32.49,32.49,0,0,0,4.8-12.33,26.71,26.71,0,0,0-.72-11.69,29,29,0,0,0-5.63-10.37A40.7,40.7,0,0,0,1007.59,810.33Z"/><path class="cls-2" d="M34.09,563.06,145.4,498.12V528L76.23,569.46l69.17,40.4v31.2L34.09,577.13Z"/><path class="cls-2" d="M232.06,637a58.62,58.62,0,0,1-25.57-5.5,61.52,61.52,0,0,1-19.88-15,69.74,69.74,0,0,1-13-21.73A72.4,72.4,0,0,1,169,568.95a77.75,77.75,0,0,1,4.64-27,66.06,66.06,0,0,1,13.12-22A63.11,63.11,0,0,1,207,505.15a61,61,0,0,1,26.1-5.5q17,0,29.42,7.67a66.75,66.75,0,0,1,20.67,19.94V502h25.71v129.9q0,14.58-5.57,25.83a54.89,54.89,0,0,1-15.5,19,70.8,70.8,0,0,1-23.45,11.89,100.25,100.25,0,0,1-29.15,4.09q-23.06,0-38.16-7.54a74.64,74.64,0,0,1-25.71-21.1l16.43-14.83a50.91,50.91,0,0,0,20.54,16.37,65.21,65.21,0,0,0,26.9,5.63,62.18,62.18,0,0,0,17.09-2.3,40.15,40.15,0,0,0,14.18-7.16,34.77,34.77,0,0,0,9.67-12.27,40.26,40.26,0,0,0,3.58-17.64V611.39a50,50,0,0,1-20.41,18.92A59.08,59.08,0,0,1,232.06,637Zm9.54-22.76A37.59,37.59,0,0,0,254.32,612a45.25,45.25,0,0,0,11.26-5.88,43.13,43.13,0,0,0,8.88-8.44,30.2,30.2,0,0,0,5.3-10.1v-35a47.87,47.87,0,0,0-16.43-20.84,39.93,39.93,0,0,0-23.85-8.05,36.25,36.25,0,0,0-17.09,4,40.84,40.84,0,0,0-12.85,10.48,49.3,49.3,0,0,0-8.22,14.7,49.87,49.87,0,0,0-2.92,16.88A44.88,44.88,0,0,0,201.71,587,43.92,43.92,0,0,0,210.86,601a44.75,44.75,0,0,0,13.65,9.59A40.52,40.52,0,0,0,241.6,614.2Z"/><path class="cls-2" d="M385.77,638.24q-21.47,0-32.6-13.68T342,583.78V502H371.2v76.2q0,36.05,26.24,36.05a42.22,42.22,0,0,0,23.85-7.42q11.13-7.41,17.23-21.48V502h29.15V602.44q0,4.86,1.86,6.9t6.63,2.3v24q-4.77.77-8.22,1t-6.1.26q-16.44-1.28-18.55-14.58l-.53-13.81a61,61,0,0,1-24.12,22.12A71.51,71.51,0,0,1,385.77,638.24Z"/><path class="cls-2" d="M505.3,480V449h29.15V480Zm0,155.72V502h29.15V635.68Z"/><path class="cls-2" d="M568.9,449h29.15V596.31q0,7.42,4,11.63t11.13,4.22a31.84,31.84,0,0,0,6.89-.9,39.45,39.45,0,0,0,7.42-2.43l4.24,22.76a69.51,69.51,0,0,1-15.11,4.47A84.85,84.85,0,0,1,601,637.73q-15.11,0-23.59-7.93t-8.48-22.5Z"/><path class="cls-2" d="M704.33,638.24a62.82,62.82,0,0,1-26.37-5.5,64.29,64.29,0,0,1-20.8-15,69.12,69.12,0,0,1-13.65-22,72.94,72.94,0,0,1-4.9-26.85,77.75,77.75,0,0,1,4.64-27,68.57,68.57,0,0,1,12.85-22,61,61,0,0,1,19.74-14.83,57.44,57.44,0,0,1,25-5.5,54.84,54.84,0,0,1,28.89,7.67,56,56,0,0,1,19.88,19.94V449H778.8V602.44q0,8.7,8.48,9.21v24q-4.51.77-8,1T773,637q-16.44-1.53-18.55-14.58l-.53-11a53.31,53.31,0,0,1-21.2,19.95A60.49,60.49,0,0,1,704.33,638.24Zm7.42-24a36.58,36.58,0,0,0,11.66-2,46.91,46.91,0,0,0,11.4-5.62,43,43,0,0,0,9.28-8.44,28.85,28.85,0,0,0,5.57-10.48v-35A42.59,42.59,0,0,0,743,541.2a51.48,51.48,0,0,0-9.67-9.21,45.47,45.47,0,0,0-11.53-6.14,36.18,36.18,0,0,0-12.19-2.17,36.63,36.63,0,0,0-16.83,3.84,41.56,41.56,0,0,0-13,10.23,46,46,0,0,0-8.35,14.7,51,51,0,0,0-2.92,17,45.84,45.84,0,0,0,3.31,17.39,44.72,44.72,0,0,0,9,14.19,42.75,42.75,0,0,0,13.65,9.59A41.42,41.42,0,0,0,711.75,614.2Z"/><path class="cls-2" d="M968.56,454.14,839.49,635.68H807.16L936,454.14Z"/><path class="cls-2" d="M1101.86,577.13,990.29,641.05v-31.2l69.17-40.4L990.29,528V498.12l111.58,64.95Z"/></svg>