<?xml version="1.0" encoding="UTF-8"?>
<svg width="54px" height="54px" viewBox="0 0 54 54" version="1.1" xmlns="http://www.w3.org/2000/svg" xmlns:xlink="http://www.w3.org/1999/xlink">
    <!-- Generator: Sketch 42 (36781) - http://www.bohemiancoding.com/sketch -->
    <title>Icon/GitHub</title>
    <desc>Created with Sketch.</desc>
    <defs></defs>
    <g id="Symbols" stroke="none" stroke-width="1" fill="none" fill-rule="evenodd">
        <g id="Icon/GitHub" fill="#249CBC">
            <g id="github">
                <path d="M51.0290787,2.97048976 C49.0484646,0.990307089 46.6643919,0 43.8747033,0 L10.1248652,0 C7.33603957,0 4.95110394,0.990307089 2.97048976,2.97048976 C0.990307089,4.95110394 0,7.33603957 0,10.1248652 L0,43.8751348 C0,46.6643919 0.990307089,49.0488961 2.97048976,51.0290787 C4.95110394,53.0096929 7.33603957,54 10.1248652,54 L17.9998562,54 C18.5150748,54 18.902136,53.9823082 19.1597453,53.9477877 C19.4173545,53.9124042 19.6749638,53.759651 19.9330046,53.4899595 C20.1910454,53.2206995 20.3196343,52.8280287 20.3196343,52.3123786 C20.3196343,52.2424746 20.3135932,51.4450509 20.3019426,49.9214019 C20.2898604,48.3981845 20.2842508,47.1908297 20.2842508,46.3002006 L19.4756079,46.4408716 C18.9599578,46.5345085 18.3096777,46.5755016 17.5243362,46.563851 C16.7394261,46.5522003 15.9247421,46.4702141 15.0811472,46.3178923 C14.2371207,46.1655706 13.4522107,45.8138929 12.725554,45.2632908 C11.9993288,44.7126887 11.4836787,43.9920731 11.1790352,43.1014439 L10.8273575,42.2923695 C10.5930496,41.7538496 10.2241116,41.1557818 9.72011219,40.4998921 C9.21611277,39.843571 8.70650376,39.3982564 8.19085366,39.1639484 L7.94489504,38.9878938 C7.78092262,38.8709556 7.62860088,38.729853 7.48792981,38.5658806 C7.34725874,38.4019082 7.24197118,38.2375043 7.17163565,38.0735319 C7.10130011,37.9095595 7.15955347,37.774498 7.34725874,37.6687789 C7.534964,37.5634914 7.8745595,37.5112791 8.36690826,37.5112791 L9.06983211,37.6165666 C9.53844802,37.7102035 10.1183926,37.9911142 10.8100972,38.4601616 C11.5013704,38.9287775 12.0696643,39.5380645 12.5149789,40.2880225 C13.0543618,41.2489872 13.7042104,41.9812534 14.4662506,42.4852529 C15.2278593,42.9892523 15.9955091,43.241252 16.7687685,43.241252 C17.5420279,43.241252 18.2099998,43.1825671 18.772684,43.0660604 C19.3349368,42.9486907 19.8622376,42.7726361 20.3545864,42.5378966 C20.565593,40.967645 21.1399279,39.7602902 22.0771597,38.9166953 C20.741216,38.7760242 19.5403339,38.5650176 18.4736501,38.2836755 C17.4073979,38.0023333 16.3057622,37.5453681 15.1691745,36.9123483 C14.0321552,36.2793284 13.0888823,35.4948499 12.3389243,34.5567551 C11.5889662,33.6190918 10.9736382,32.3884356 10.4933716,30.8652182 C10.013105,29.3415692 9.77275597,27.5836123 9.77275597,25.591779 C9.77275597,22.7559192 10.6987686,20.3416412 12.5503624,18.3493763 C11.6830346,16.2168719 11.7650208,13.8263267 12.796321,11.1777407 C13.4759435,10.9667341 14.4839424,11.1250969 15.8198861,11.6523977 C17.1558297,12.1801299 18.1340546,12.6314856 18.7554238,13.0060331 C19.3767929,13.3805806 19.8747513,13.6973063 20.2497303,13.9553471 C22.4297004,13.3460601 24.6795746,13.0414166 26.9997842,13.0414166 C29.3199939,13.0414166 31.5702996,13.3460601 33.7502697,13.9553471 L35.0862134,13.1117522 C36.0005753,12.5490679 37.0784782,12.0334178 38.320785,11.5648019 C39.5630918,11.096186 40.5119743,10.9671656 41.168727,11.1781722 C42.222897,13.8267582 42.3169654,16.2173034 41.4492061,18.3498078 C43.3007999,20.3420727 44.227244,22.7563507 44.227244,25.5922105 C44.227244,27.5844754 43.986895,29.3484733 43.5066284,30.8833415 C43.0263618,32.4182096 42.4054242,33.6488657 41.643384,34.5748783 C40.8817752,35.500891 39.9324613,36.27976 38.7958735,36.9127798 C37.6588543,37.5453681 36.55765,38.0027648 35.4909663,38.2836755 C34.4242826,38.5654491 33.2234004,38.7764557 31.8874567,38.9171268 C33.1055992,39.9717283 33.7148862,41.6356169 33.7148862,43.9092238 L33.7148862,52.3115156 C33.7148862,52.7102275 33.7731395,53.0321312 33.8905093,53.2785214 C34.007879,53.52448 34.1951527,53.694062 34.4531935,53.7881304 C34.7116659,53.8821988 34.9395012,53.9404521 35.1392887,53.9637535 C35.3386446,53.9874863 35.6255963,53.999137 36.0005753,53.999137 L43.8755664,53.999137 C46.6643919,53.999137 49.0493276,53.0088299 51.0290787,51.0282157 C53.0096929,49.0476015 54,46.6626659 54,43.8738403 L54,10.1248652 C53.9995685,7.33603957 53.0092614,4.95067243 51.0290787,2.97048976 L51.0290787,2.97048976 Z" id="Shape"></path>
            </g>
        </g>
    </g>
</svg>