<?xml version="1.0" encoding="UTF-8" standalone="no"?>
<svg
   xmlns:dc="http://purl.org/dc/elements/1.1/"
   xmlns:cc="http://creativecommons.org/ns#"
   xmlns:rdf="http://www.w3.org/1999/02/22-rdf-syntax-ns#"
   xmlns:svg="http://www.w3.org/2000/svg"
   xmlns="http://www.w3.org/2000/svg"
   xmlns:sodipodi="http://sodipodi.sourceforge.net/DTD/sodipodi-0.dtd"
   xmlns:inkscape="http://www.inkscape.org/namespaces/inkscape"
   height="53px"
   width="53px"
   viewBox="0 0 53 53"
   version="1.1"
   id="svg827"
   sodipodi:docname="Pinterest-Icon.svg"
   inkscape:version="0.92.3 (2405546, 2018-03-11)">
  <metadata
     id="metadata833">
    <rdf:RDF>
      <cc:Work
         rdf:about="">
        <dc:format>image/svg+xml</dc:format>
        <dc:type
           rdf:resource="http://purl.org/dc/dcmitype/StillImage" />
        <dc:title />
      </cc:Work>
    </rdf:RDF>
  </metadata>
  <defs
     id="defs831" />
  <sodipodi:namedview
     pagecolor="#ffffff"
     bordercolor="#666666"
     borderopacity="1"
     objecttolerance="10"
     gridtolerance="10"
     guidetolerance="10"
     inkscape:pageopacity="0"
     inkscape:pageshadow="2"
     inkscape:window-width="1920"
     inkscape:window-height="1017"
     id="namedview829"
     showgrid="false"
     fit-margin-top="0"
     fit-margin-left="0"
     fit-margin-right="0"
     fit-margin-bottom="0"
     inkscape:zoom="10.17939"
     inkscape:cx="26.5"
     inkscape:cy="14.162501"
     inkscape:window-x="-8"
     inkscape:window-y="-8"
     inkscape:window-maximized="1"
     inkscape:current-layer="svg827" />
  <path
     d="M 43.271256,0.15379167 H 8.7870712 A 8.6159957,8.6115974 0 0 0 0.17107459,8.7653903 V 43.231972 A 8.6159957,8.6115974 0 0 0 8.7870712,51.843569 H 43.271256 a 8.6159957,8.6115974 0 0 0 8.615997,-8.611597 V 8.7653903 A 8.6159957,8.6115974 0 0 0 43.271256,0.15379167 Z M 28.534163,34.680947 c -2.343391,-0.171622 -3.333269,-1.342721 -5.171615,-2.453246 -1.010083,5.300221 -2.2
        484,10.398533 -5.919076,13.053688 -1.131296,-8.026049 1.656531,-14.053155 2.959534,-20.453802 -2.22218,-3.715205 0.262622,-11.20618 4.929199,-9.35868 5.737261,2.271524 -4.969603,13.831057 2.222179,15.274737 7.504906,1.514345 10.565455,-13.023401 5.908978,-17.738073 -6.717042,-6.814575 -19.575377,-0.151435 -17.989555,9.611065 0.383834,2.382573 2.848431,3.109467 0.97978,6.400648 C 12.150645,28.068292 10.86784,24.676151 11.029448,20.153292 11.30217,12.743079 17.695987,7.5640044 24.099903,6.8472176 32.200762,5.9386031 39.806676,9.8153404 40.867262,17.447661 c 1.181791,8.591401 -3.666599,17.909696 -12.323,17.243384 z"
     id="path825"
     inkscape:connector-curvature="0"
     style="fill:#249cbc;stroke-width:0.10098236" />
</svg>
