<svg xmlns="http://www.w3.org/2000/svg" viewBox="0 0 24 24">
  <path d="M27.8-15H-3.9C-10-15-15-10-15-3.7v31.4C-15 34-10 39-3.7 39h31.4C34 39 39 34 39 27.7V-3.6C39-10 34-15 27.7-15zM12 30a18 18 0 0 1-5.3-.8c.7-1.2 1.8-3.2 2.2-4.7l1.1-4.3c.6 1.1 2.3 2 4.2 2 5.4 0 9.3-5 9.3-11.1C23.5 5 18.6.7 12.4.7 4.6.7.5 5.9.5 11.6c0 2.6 1.4 5.9 3.7 7 .3.1.5 0 .6-.3l.5-2c0-.2 0-.4-.2-.6a7 7 0 0 1-1.3-4c0-4 3-7.9 8.1-7.9 4.4 0 7.5 3 7.5 7.3 0 5-2.4 8.3-5.6 8.3-1.8 0-3.1-1.5-2.7-3.3.5-2.1 1.5-4.4 1.5-6 0-1.3-.7-2.5-2.3-2.5-1.8 0-3.2 1.9-3.2 4.4 0 1.6.5 2.7.5 2.7l-2.1 8.9c-.4 1.6-.2 3.7 0 5.2A18 18 0 1 1 12 30z"/>
  <path d="M-5.2 38.9a11.2 11.2 0 0 1-9.7-10V11.4c0-18.2 0-16.8.3-18.2A11.2 11.2 0 0 1-4.8-15h33.6A11.2 11.2 0 0 1 38.9-5v33.7c0 .8-.3 1.7-.5 2.5l-1.5 3-2.6 2.6c-1.3.9-3 1.6-4.6 2H-5.2zm18.4-9a18 18 0 1 0-7.8-1.1v-.6a23 23 0 0 1 0-4l1.2-5 1-4.5-.1-.5a6 6 0 0 1-.4-2.4 4.5 4.5 0 0 1 1.3-3.3c.2-.2.5-.5.7-.5.4-.3 1-.4 1.4-.4 1.3.2 2 1 2 2.5 0 .8-.1 1.5-.7 3.7C11 16 11 16.4 11 17c0 .6.3 1 .7 1.5 1 1 2.5 1.2 4 .5 2.1-1 3.5-3.5 3.7-6.9.1-1.3 0-2.4-.3-3.5a7 7 0 0 0-5.9-4.7c-1.3-.2-3 0-4.2.4A7.7 7.7 0 0 0 4 13a7 7 0 0 0 1 2.6l.3.5-.6 2.4c0 .1-.3.1-.6-.1-1.6-.8-2.9-3-3.3-5.4l-.1-1.6c0-5 3.1-9 8-10.2 3.2-.8 6.4-.6 9 .7 3 1.4 5 3.9 5.7 7l.1 2.3-.1 2.3c-.7 3.7-2.7 6.5-5.5 7.9-1.7.9-4 1-5.6.5-.8-.3-1.7-1-2-1.6l-.2-.2v.3a3478.6 3478.6 0 0 0-1.4 5 27.4 27.4 0 0 1-1.9 3.8l2.6.6c1.4.2 2.6.3 4 .2z"/>
  <path d="M-5.2 38.9a11.2 11.2 0 0 1-9.7-10V11.4c0-18.2 0-16.8.3-18.2A11.2 11.2 0 0 1-4.8-15h33.6A11.2 11.2 0 0 1 38.9-5v33.7c0 .8-.3 1.7-.5 2.5l-1.5 3-2.6 2.6c-1.3.9-3 1.6-4.6 2H-5.2zm18.4-9a18 18 0 1 0-7.8-1.1v-.6a23 23 0 0 1 0-4l1.2-5 1-4.5-.1-.5a6 6 0 0 1-.4-2.4 4.5 4.5 0 0 1 1.3-3.3c.2-.2.5-.5.7-.5.4-.3 1-.4 1.4-.4 1.3.2 2 1 2 2.5 0 .8-.1 1.5-.7 3.7C11 16 11 16.4 11 17c0 .6.3 1 .7 1.5 1 1 2.5 1.2 4 .5 2.1-1 3.5-3.5 3.7-6.9.1-1.3 0-2.4-.3-3.5a7 7 0 0 0-5.9-4.7c-1.3-.2-3 0-4.2.4A7.7 7.7 0 0 0 4 13a7 7 0 0 0 1 2.6l.3.5-.6 2.4c0 .1-.3.1-.6-.1-1.6-.8-2.9-3-3.3-5.4l-.1-1.6c0-5 3.1-9 8-10.2 3.2-.8 6.4-.6 9 .7 3 1.4 5 3.9 5.7 7l.1 2.3-.1 2.3c-.7 3.7-2.7 6.5-5.5 7.9-1.7.9-4 1-5.6.5-.8-.3-1.7-1-2-1.6l-.2-.2v.3a3478.6 3478.6 0 0 0-1.4 5 27.4 27.4 0 0 1-1.9 3.8l2.6.6c1.4.2 2.6.3 4 .2z"/>
  <path fill="#249cbc" d="M-5.2 38.9a11.2 11.2 0 0 1-9.7-10V11.4c0-18.2 0-16.8.3-18.2A11.2 11.2 0 0 1-4.8-15h33.6A11.2 11.2 0 0 1 38.9-5v33.7c0 .8-.3 1.7-.5 2.5l-1.5 3-2.6 2.6c-1.3.9-3 1.6-4.6 2H-5.2zm18.4-9a18 18 0 1 0-7.8-1.1v-.6a23 23 0 0 1 0-4l1.2-5 1-4.5-.1-.5a6 6 0 0 1-.4-2.4 4.5 4.5 0 0 1 1.3-3.3c.2-.2.5-.5.7-.5.4-.3 1-.4 1.4-.4 1.3.2 2 1 2 2.5 0 .8-.1 1.5-.7 3.7C11 16 11 16.4 11 17c0 .6.3 1 .7 1.5 1 1 2.5 1.2 4 .5 2.1-1 3.5-3.5 3.7-6.9.1-1.3 0-2.4-.3-3.5a7 7 0 0 0-5.9-4.7c-1.3-.2-3 0-4.2.4A7.7 7.7 0 0 0 4 13a7 7 0 0 0 1 2.6l.3.5-.6 2.4c0 .1-.3.1-.6-.1-1.6-.8-2.9-3-3.3-5.4l-.1-1.6c0-5 3.1-9 8-10.2 3.2-.8 6.4-.6 9 .7 3 1.4 5 3.9 5.7 7l.1 2.3-.1 2.3c-.7 3.7-2.7 6.5-5.5 7.9-1.7.9-4 1-5.6.5-.8-.3-1.7-1-2-1.6l-.2-.2v.3a3478.6 3478.6 0 0 0-1.4 5 27.4 27.4 0 0 1-1.9 3.8l2.6.6c1.4.2 2.6.3 4 .2z"/>
  <path fill="#249cbc" d="M11 30a25 25 0 0 1-4.2-.8l.3-.8c.6-1 1.2-2 1.5-2.8l.8-3 .6-2.3.3.3a5 5 0 0 0 4 1.6c1.1 0 1.7 0 2.6-.4 3.1-1 5.4-3.9 6.3-7.6a12.4 12.4 0 0 0-.2-6.5 9.4 9.4 0 0 0-2.5-3.8c-1.2-1.2-2.5-2-4.1-2.6-2-.7-4.4-.8-6.7-.4-2.4.4-4.6 1.5-6.2 3a10.5 10.5 0 0 0-2.8 9.3 8.4 8.4 0 0 0 2.2 4.5l1 .7c.5.3.6.3.8.1l.6-2.4-.3-.6c-.8-1-1.2-2.8-1.2-4.3A7.9 7.9 0 0 1 12.2 4c1.4 0 2.4.3 3.4.8 3 1.6 4.4 4.8 3.6 9-.7 3.3-2.8 5.6-5.4 5.6-.8 0-1.5-.2-2-.8-.5-.4-.7-.9-.7-1.5s0-.9.7-3.3c.7-2 .8-2.7.8-3.5 0-1.3-.4-2-1.3-2.4-.5-.3-1.3-.3-1.9 0-1 .4-2 1.5-2.2 3-.2 1-.1 2.4.2 3.4l.2.5-1 4.3c-1.3 5.3-1.2 5-1.3 6v3.5l.1.2-.3-.1a18 18 0 0 1 9.5-34.4A18.3 18.3 0 0 1 29 6.2a18.1 18.1 0 0 1-1 14A18 18 0 0 1 11 30z"/>
  <path fill="#249cbc" fill-opacity=".6" d="M-5.2 38.8a11.4 11.4 0 0 1-6.4-3.1 10 10 0 0 1-2.2-3l-1-2.8V12-5.5c.2-1.1.7-2.7 1.3-3.8 1.6-2.6 4-4.5 7-5.3 1.5-.4.5-.3 18.5-.3h17.3A11.3 11.3 0 0 1 38.7-6l.2.7v34.6l-.2.7c-.2 1-.5 1.7-1 2.7-.4 1-.9 1.6-1.5 2.4a11 11 0 0 1-7.3 3.7H-5.2zm19.5-9A18 18 0 0 0 30 14.3a18.1 18.1 0 0 0-15.2-20c-1-.2-4.4-.2-5.4 0a18 18 0 0 0-4 34.6h.2v-.3c-.1-.7-.2-3-.1-3.8 0-.7.2-1.2 1.5-6.7l.8-3.3-.2-.5c-.3-.8-.3-1.3-.3-2.4a4.2 4.2 0 0 1 1.2-3.3c.6-.6 1-.7 1.8-.8 1.5 0 2.3.8 2.3 2.5 0 .8-.1 1.2-.7 3.3-.7 2.6-.8 2.8-.8 3.4 0 .4 0 .7.2 1 .3.5.8 1 1.4 1.3l1 .2 1.3-.1c2.5-.7 4.1-3.2 4.5-6.8.3-2.7-.3-4.9-1.9-6.5a7 7 0 0 0-5.2-2.2c-1.6 0-2.9.2-4 .8C7.2 5 6.7 5.4 6 6a7.6 7.6 0 0 0-1.3 9.4l.4.8-.6 2.2c0 .2-.3.1-.8-.1a7.7 7.7 0 0 1-3-5c-.2-.8-.2-2.6 0-3.6a10 10 0 0 1 3-5.8c2-2 5-3.2 8.5-3.2 3.1 0 6 1 8 3a9.7 9.7 0 0 1 3 7.8c0 1.8 0 2.2-.5 3.7-1.2 3.7-4 6.4-7.3 6.9l-2.8-.1c-1-.3-2-1-2.5-1.7l-.2-.2v.3a277.4 277.4 0 0 0-1.4 4.7 27.3 27.3 0 0 1-2 4c0 .2 2.1.7 3.5.9l4.2-.1z"/>
  <path fill="#fff" d="M9.9 29.8a21.7 21.7 0 0 1-3-.6l.4-1c1.1-2 1.4-2.7 2.3-6l.4-1.8.3.3c.6.7 1.7 1.3 2.7 1.5.7.1 2.4 0 3.2-.1 3.6-1 6.2-4 7-8.3.3-1 .4-2.8.2-4A9.9 9.9 0 0 0 21.7 5c-.5-.6-2-2-2.6-2.4-.6-.5-2-1.2-2.8-1.4-2-.8-5-.9-7.3-.3-1.5.3-3 1-4.2 1.8L2.4 5.2C1.7 6.3 1 7.8.7 9.2l-.2 2 .1 2A8.4 8.4 0 0 0 3 17.6c.6.7 1.1 1 1.5 1 .2 0 .2 0 .3-.2.2-.3.6-2 .6-2.2l-.2-.6-.8-1.5a7.7 7.7 0 0 1 0-5A7.8 7.8 0 0 1 11.9 4 7.3 7.3 0 0 1 17.4 6c1.8 1.8 2.4 4.6 1.7 7.8-.6 3-2.5 5.2-4.8 5.5-1.1.1-2-.2-2.7-1-.3-.4-.5-.9-.5-1.5s.1-.8 1-3.7c.5-1.8.5-2.2.5-3.1 0-.6 0-.8-.2-1.1-.2-.5-.7-1-1.1-1.2-.4-.2-1.4-.2-2 0-.7.3-1.4 1-1.8 2a5 5 0 0 0-.4 2.2c0 1 0 1.3.3 2.2l.1.6-.8 3.6C5 25 5 24.8 5.3 27.3v1.3s-1.1-.4-1.5-.7A17.9 17.9 0 0 1 2.3-3 18.2 18.2 0 0 1 14-5.8 18.2 18.2 0 0 1 26.2 1 18 18 0 0 1 10 29.8z"/>
  <path fill="#fff" d="M10.7 29.9L7 29.2l.5-1.2a20 20 0 0 0 2-5.4l.6-2v-.1l.4.3c.6.6 1.2 1 2.1 1.3l1.4.2c1.6 0 2.6-.2 4-.9 2.4-1.2 4.3-3.5 5.2-6.7.5-1.7.6-4.3.2-6-.2-1-.8-2.3-1.4-3.3A11.7 11.7 0 0 0 14.6.8C13.5.6 11 .6 9.9.8a13 13 0 0 0-5.1 2c-.8.6-2 1.8-2.5 2.6C1.6 6.5 1 8 .7 9.4l-.2 1.8c0 1.6 0 2 .4 3.2a7.4 7.4 0 0 0 3 4c.4.3.6.3.7.1.3-.2.8-2.2.7-2.5a6 6 0 0 0-.4-.8 7 7 0 0 1-.8-2.2c-.2-1-.2-2.4 0-3.4A7.6 7.6 0 0 1 11.8 4c1.4 0 2.1.2 2.9.5 3.5 1.3 5.2 4.6 4.5 8.9-.5 2.7-1.7 4.6-3.5 5.5-1.2.6-2.3.6-3.2.2-.5-.3-1-.8-1.2-1.3v-1c0-.7 0-1 .5-2.8.8-2.7.8-2.8.8-3.8 0-.8 0-1-.2-1.3-.2-.4-.7-.9-1-1-.3-.2-.5-.2-1-.2-.7 0-.8 0-1.2.2-1 .5-1.9 1.7-2 3a8.5 8.5 0 0 0 .1 3.2l.2.7-.8 3.4-1 4.4c-.5 2.2-.5 2-.5 4.1v2l-1-.5a17.9 17.9 0 1 1 6.5 1.8z"/>
  <path fill="#fff" d="M10.5 29.9L7 29.2l.6-1.2a20 20 0 0 0 2-5.3l.5-2v-.2l.5.4c.5.5 1.2.9 2 1.1.4.2.6.2 1.3.3a8 8 0 0 0 5.8-2c2-1.7 3.5-4.5 3.8-7.5V9c-.3-1.2-1-2.6-1.6-3.5a18 18 0 0 0-2.5-2.6 12 12 0 0 0-5-2 13.2 13.2 0 0 0-9.2 1.9 14 14 0 0 0-2.4 2.2C1.7 6 .9 8 .7 9.4l-.2 2A8 8 0 0 0 3 17.7c.6.7 1.1 1 1.4 1 .3 0 .3 0 .4-.2.2-.2.6-1.8.6-2.2L4.8 15a8 8 0 0 1-.7-1.5l-.1-2L4 9.6A7.8 7.8 0 0 1 12 4 7.2 7.2 0 0 1 17.4 6a7 7 0 0 1 2 4.8c0 3.5-1.4 6.7-3.6 7.9-1.8.9-3.6.5-4.4-.9-.1-.3-.2-.4-.2-.9 0-.7 0-1 .7-3.3l.6-2.5c.2-.7 0-2 0-2.3-.3-.4-.8-1-1.1-1.1-.3-.2-.4-.2-1-.2-.7 0-.8 0-1.1.2-.7.3-1.3 1-1.8 1.8-.3.7-.4 1.1-.4 2.4 0 1 0 1.2.2 2l.2.7-.8 3.6-1.4 6v4.3A23 23 0 0 1 2 26.9 18 18 0 0 1-5.8 9.5 17.6 17.6 0 0 1 1-2c2.4-2 5.7-3.4 8.7-3.7.9-.2 4.2-.1 5 0a18.5 18.5 0 0 1 11.7 7 18 18 0 0 1-15.8 28.6z"/>
  <path fill="#fff" d="M10.5 29.9l-3.6-.7.7-1.6c1-1.8 1.2-2.4 1.9-5.2l.5-1.8.4.2c.8.8 1.9 1.3 2.8 1.4H16c3.9-.9 7-4.6 7.5-9.3a17 17 0 0 0 0-4c-.3-1.2-.9-2.5-1.5-3.5l-2.6-2.6a12.8 12.8 0 0 0-9-2c-2 .2-4 1-5.5 2L2.4 5.4C1.7 6.3 1 7.7.8 9c-.3 1-.4 3.5-.1 4.5.2 1.1.7 2.3 1.2 3.1.4.5 1.5 1.7 1.9 1.9.7.4.8.3 1-.5l.5-1.7-.4-1c-.8-1.4-1-2.2-1-3.6 0-1 0-1.4.3-2.2.4-1.2 1-2.2 2-3.1C7.5 4.8 9.1 4 11.2 4c1 0 2 0 2.8.2a9 9 0 0 1 2.4 1.1 7.2 7.2 0 0 1 2.7 4.4c.1.6.2 2.5 0 3.3-.4 2.8-1.7 4.8-3.4 5.8-1.8.9-3.6.5-4.4-.9-.2-.3-.2-.4-.2-1 0-.7 0-.8.9-4l.5-1.6v-1c0-1 0-1-.2-1.4-.2-.5-.6-1-1-1.1-.4-.2-.4-.2-1.1-.2-.7 0-.8 0-1.1.2-.7.3-1.2 1-1.6 1.8-.4.8-.5 1.1-.5 2.4 0 1 0 1.1.2 2l.2.7-.8 3.3c-1.5 6.6-1.4 6.2-1.4 8.7v1.9H5l-1-.6A18 18 0 0 1-2.2 1a18.4 18.4 0 0 1 11-6.7 29 29 0 0 1 4.4-.1c1.4 0 2.3.2 3.7.6 2 .6 4 1.6 5.7 2.9.7.4 3.1 2.9 3.6 3.5a17.7 17.7 0 0 1 3.2 14.4A18.7 18.7 0 0 1 23.2 26a18.2 18.2 0 0 1-12.7 3.9z"/>
  <path fill="none" d="M10.8 29.9c-1 0-3.3-.5-3.8-.7h-.2l.8-1.6c1-1.8 1.2-2.6 2-5.2l.4-1.8.5.3c1.3 1 2.4 1.4 4.1 1.3 1.3 0 2.1-.2 3.2-.7 3-1.5 5.2-4.8 5.6-8.7V8.9c-.4-1.3-1-2.9-1.7-3.7A16 16 0 0 0 19 2.6c-1.2-.8-2.8-1.5-4.4-1.8H9.8a13 13 0 0 0-5 2.1C4.2 3.3 3 4.5 2.6 5 2 5.8 1.4 7 1 8.3c-.4 1-.4 1.4-.4 3.2l.1 2.3a8 8 0 0 0 2.5 4.1c.8.7 1.3.9 1.5.5.2-.3.6-1.9.6-2.2l-.4-1c-.8-1.4-1-2.5-1-4 .1-2 .8-3.6 2.3-5a7.6 7.6 0 0 1 4-2.1c.7-.2 2.6-.2 3.5 0 1.5.3 3 1.2 4 2.3.7 1 1.1 1.7 1.4 2.9.2.6.2.7.2 2 0 1.4 0 1.6-.2 2.3-.6 2.8-2 4.8-4 5.5a3 3 0 0 1-1.2.1c-1 0-1.3 0-1.8-.5-1-.8-1.1-1.7-.6-3.8l.7-2.4.3-1.1v-1.1l-.1-1.4c-.2-.5-.7-1-1-1.1-.4-.2-.5-.2-1.2-.2-.6 0-.8 0-1 .2a4 4 0 0 0-1.6 1.7c-.4 1-.5 1.3-.5 2.7 0 1 0 1.3.2 1.9l.2.6-.8 3.5c-1.5 6.3-1.5 6.3-1.4 8.8v1.6l-2.7-1.4a18 18 0 0 1 6.7-33h5.4a17.3 17.3 0 0 1 9.6 4.9C25.6.4 26.2 1 26.8 1.9c2 3 3 6 3 9.7a17.4 17.4 0 0 1-5.4 13.3 17.5 17.5 0 0 1-13.6 5z"/>
  <path fill="none" d="M10.4 29.9L7 29.2l.8-1.7c.9-1.8 1-2.4 1.8-5.1l.5-1.9.3.2a6 6 0 0 0 2.4 1.4l1.5.1c1.6 0 2.5-.2 3.9-.9 2.7-1.4 4.7-4.5 5.2-8 .3-2 .2-4.3-.4-5.8l-1-2.1c-.5-.6-2.3-2.4-3-2.8-.6-.5-1.8-1-2.5-1.3-.6-.2-1.7-.5-2.3-.5h-3.8c-1.7.2-3.8 1-5.3 2-.7.4-2.2 1.9-2.6 2.5-.6 1-1.1 2-1.5 3.2-.3.9-.4 1.4-.4 3 0 1.4 0 1.5.2 2.1.5 1.9 1.1 3 2.3 4.1.8.8 1.4 1 1.7.7 0-.1.4-1 .5-1.8l.1-.5-.5-1a6.7 6.7 0 0 1-.9-3.6c0-1.6.4-2.8 1.3-4.2.4-.6 1.4-1.5 2-2 .9-.6 2-1 3.1-1.3h3.2a8 8 0 0 1 3.1 1.4 7 7 0 0 1 2.2 3c1.1 2.8.4 7-1.5 9.2-1.2 1.3-2.9 2-4.2 1.6-.8-.2-1.6-.9-1.8-1.5-.3-.8-.2-1.3.6-4.1.7-2.3.8-3 .7-4-.1-.6-.3-1-.7-1.4-.4-.4-.7-.5-1.4-.6-.8 0-1.2 0-1.7.5-.5.3-1 .9-1.3 1.6-.3.7-.4 1.1-.4 2.4 0 1 0 1 .2 1.8l.2.8L7 17c-1.8 7.7-1.7 7-1.7 9.5v2.2a17.9 17.9 0 1 1 5.2 1.3z"/>
  <path fill="none" d="M10.4 29.9L7 29.2l.8-1.7c.9-1.8 1-2.4 1.8-5.1l.5-1.9.3.2a6 6 0 0 0 2.4 1.4l1.5.1c1.6 0 2.5-.2 3.9-.9 2.7-1.4 4.7-4.5 5.2-8 .3-2 .2-4.3-.4-5.8l-1-2.1c-.5-.6-2.3-2.4-3-2.8-.6-.5-1.8-1-2.5-1.3-.6-.2-1.7-.5-2.3-.5h-3.8c-1.7.2-3.8 1-5.3 2-.7.4-2.2 1.9-2.6 2.5-.6 1-1.1 2-1.5 3.2-.3.9-.4 1.4-.4 3 0 1.4 0 1.5.2 2.1.5 1.9 1.1 3 2.3 4.1.8.8 1.4 1 1.7.7 0-.1.4-1 .5-1.8l.1-.5-.5-1a6.7 6.7 0 0 1-.9-3.6c0-1.6.4-2.8 1.3-4.2.4-.6 1.4-1.5 2-2 .9-.6 2-1 3.1-1.3h3.2a8 8 0 0 1 3.1 1.4 7 7 0 0 1 2.2 3c1.1 2.8.4 7-1.5 9.2-1.2 1.3-2.9 2-4.2 1.6-.8-.2-1.6-.9-1.8-1.5-.3-.8-.2-1.3.6-4.1.7-2.3.8-3 .7-4-.1-.6-.3-1-.7-1.4-.4-.4-.7-.5-1.4-.6-.8 0-1.2 0-1.7.5-.5.3-1 .9-1.3 1.6-.3.7-.4 1.1-.4 2.4 0 1 0 1 .2 1.8l.2.8L7 17c-1.8 7.7-1.7 7-1.7 9.5v2.2a17.9 17.9 0 1 1 5.2 1.3z"/>
  <path fill="none" d="M10.4 29.9L7 29.2l.8-1.7c.9-1.8 1-2.4 1.8-5.1l.5-1.9.3.2a6 6 0 0 0 2.4 1.4l1.5.1c1.6 0 2.5-.2 3.9-.9 2.7-1.4 4.7-4.5 5.2-8 .3-2 .2-4.3-.4-5.8l-1-2.1c-.5-.6-2.3-2.4-3-2.8-.6-.5-1.8-1-2.5-1.3-.6-.2-1.7-.5-2.3-.5h-3.8c-1.7.2-3.8 1-5.3 2-.7.4-2.2 1.9-2.6 2.5-.6 1-1.1 2-1.5 3.2-.3.9-.4 1.4-.4 3 0 1.4 0 1.5.2 2.1.5 1.9 1.1 3 2.3 4.1.8.8 1.4 1 1.7.7 0-.1.4-1 .5-1.8l.1-.5-.5-1a6.7 6.7 0 0 1-.9-3.6c0-1.6.4-2.8 1.3-4.2.4-.6 1.4-1.5 2-2 .9-.6 2-1 3.1-1.3h3.2a8 8 0 0 1 3.1 1.4 7 7 0 0 1 2.2 3c1.1 2.8.4 7-1.5 9.2-1.2 1.3-2.9 2-4.2 1.6-.8-.2-1.6-.9-1.8-1.5-.3-.8-.2-1.3.6-4.1.7-2.3.8-3 .7-4-.1-.6-.3-1-.7-1.4-.4-.4-.7-.5-1.4-.6-.8 0-1.2 0-1.7.5-.5.3-1 .9-1.3 1.6-.3.7-.4 1.1-.4 2.4 0 1 0 1 .2 1.8l.2.8L7 17c-1.8 7.7-1.7 7-1.7 9.5v2.2a17.9 17.9 0 1 1 5.2 1.3z"/>
  <path fill="none" d="M10.4 29.9L7 29.2l.8-1.7c.9-1.8 1-2.4 1.8-5.1l.5-1.9.3.2a6 6 0 0 0 2.4 1.4l1.5.1c1.6 0 2.5-.2 3.9-.9 2.7-1.4 4.7-4.5 5.2-8 .3-2 .2-4.3-.4-5.8l-1-2.1c-.5-.6-2.3-2.4-3-2.8-.6-.5-1.8-1-2.5-1.3-.6-.2-1.7-.5-2.3-.5h-3.8c-1.7.2-3.8 1-5.3 2-.7.4-2.2 1.9-2.6 2.5-.6 1-1.1 2-1.5 3.2-.3.9-.4 1.4-.4 3 0 1.4 0 1.5.2 2.1.5 1.9 1.1 3 2.3 4.1.8.8 1.4 1 1.7.7 0-.1.4-1 .5-1.8l.1-.5-.5-1a6.7 6.7 0 0 1-.9-3.6c0-1.6.4-2.8 1.3-4.2.4-.6 1.4-1.5 2-2 .9-.6 2-1 3.1-1.3h3.2a8 8 0 0 1 3.1 1.4 7 7 0 0 1 2.2 3c1.1 2.8.4 7-1.5 9.2-1.2 1.3-2.9 2-4.2 1.6-.8-.2-1.6-.9-1.8-1.5-.3-.8-.2-1.3.6-4.1.7-2.3.8-3 .7-4-.1-.6-.3-1-.7-1.4-.4-.4-.7-.5-1.4-.6-.8 0-1.2 0-1.7.5-.5.3-1 .9-1.3 1.6-.3.7-.4 1.1-.4 2.4 0 1 0 1 .2 1.8l.2.8L7 17c-1.8 7.7-1.7 7-1.7 9.5v2.2a17.9 17.9 0 1 1 5.2 1.3z"/>
  <path fill="none" d="M10.4 29.9L7 29.2l.8-1.7c.9-1.8 1-2.4 1.8-5.1l.5-1.9.3.2a6 6 0 0 0 2.4 1.4l1.5.1c1.6 0 2.5-.2 3.9-.9 2.7-1.4 4.7-4.5 5.2-8 .3-2 .2-4.3-.4-5.8l-1-2.1c-.5-.6-2.3-2.4-3-2.8-.6-.5-1.8-1-2.5-1.3-.6-.2-1.7-.5-2.3-.5h-3.8c-1.7.2-3.8 1-5.3 2-.7.4-2.2 1.9-2.6 2.5-.6 1-1.1 2-1.5 3.2-.3.9-.4 1.4-.4 3 0 1.4 0 1.5.2 2.1.5 1.9 1.1 3 2.3 4.1.8.8 1.4 1 1.7.7 0-.1.4-1 .5-1.8l.1-.5-.5-1a6.7 6.7 0 0 1-.9-3.6c0-1.6.4-2.8 1.3-4.2.4-.6 1.4-1.5 2-2 .9-.6 2-1 3.1-1.3h3.2a8 8 0 0 1 3.1 1.4 7 7 0 0 1 2.2 3c1.1 2.8.4 7-1.5 9.2-1.2 1.3-2.9 2-4.2 1.6-.8-.2-1.6-.9-1.8-1.5-.3-.8-.2-1.3.6-4.1.7-2.3.8-3 .7-4-.1-.6-.3-1-.7-1.4-.4-.4-.7-.5-1.4-.6-.8 0-1.2 0-1.7.5-.5.3-1 .9-1.3 1.6-.3.7-.4 1.1-.4 2.4 0 1 0 1 .2 1.8l.2.8L7 17c-1.8 7.7-1.7 7-1.7 9.5v2.2a17.9 17.9 0 1 1 5.2 1.3z"/>
  <path fill="none" d="M10.4 29.9L7 29.2l.8-1.7c.9-1.8 1-2.4 1.8-5.1l.5-1.9.3.2a6 6 0 0 0 2.4 1.4l1.5.1c1.6 0 2.5-.2 3.9-.9 2.7-1.4 4.7-4.5 5.2-8 .3-2 .2-4.3-.4-5.8l-1-2.1c-.5-.6-2.3-2.4-3-2.8-.6-.5-1.8-1-2.5-1.3-.6-.2-1.7-.5-2.3-.5h-3.8c-1.7.2-3.8 1-5.3 2-.7.4-2.2 1.9-2.6 2.5-.6 1-1.1 2-1.5 3.2-.3.9-.4 1.4-.4 3 0 1.4 0 1.5.2 2.1.5 1.9 1.1 3 2.3 4.1.8.8 1.4 1 1.7.7 0-.1.4-1 .5-1.8l.1-.5-.5-1a6.7 6.7 0 0 1-.9-3.6c0-1.6.4-2.8 1.3-4.2.4-.6 1.4-1.5 2-2 .9-.6 2-1 3.1-1.3h3.2a8 8 0 0 1 3.1 1.4 7 7 0 0 1 2.2 3c1.1 2.8.4 7-1.5 9.2-1.2 1.3-2.9 2-4.2 1.6-.8-.2-1.6-.9-1.8-1.5-.3-.8-.2-1.3.6-4.1.7-2.3.8-3 .7-4-.1-.6-.3-1-.7-1.4-.4-.4-.7-.5-1.4-.6-.8 0-1.2 0-1.7.5-.5.3-1 .9-1.3 1.6-.3.7-.4 1.1-.4 2.4 0 1 0 1 .2 1.8l.2.8L7 17c-1.8 7.7-1.7 7-1.7 9.5v2.2a17.9 17.9 0 1 1 5.2 1.3z"/>
  <path fill="none" d="M10.4 29.9L7 29.2l.8-1.7c.9-1.8 1-2.4 1.8-5.1l.5-1.9.3.2a6 6 0 0 0 2.4 1.4l1.5.1c1.6 0 2.5-.2 3.9-.9 2.7-1.4 4.7-4.5 5.2-8 .3-2 .2-4.3-.4-5.8l-1-2.1c-.5-.6-2.3-2.4-3-2.8-.6-.5-1.8-1-2.5-1.3-.6-.2-1.7-.5-2.3-.5h-3.8c-1.7.2-3.8 1-5.3 2-.7.4-2.2 1.9-2.6 2.5-.6 1-1.1 2-1.5 3.2-.3.9-.4 1.4-.4 3 0 1.4 0 1.5.2 2.1.5 1.9 1.1 3 2.3 4.1.8.8 1.4 1 1.7.7 0-.1.4-1 .5-1.8l.1-.5-.5-1a6.7 6.7 0 0 1-.9-3.6c0-1.6.4-2.8 1.3-4.2.4-.6 1.4-1.5 2-2 .9-.6 2-1 3.1-1.3h3.2a8 8 0 0 1 3.1 1.4 7 7 0 0 1 2.2 3c1.1 2.8.4 7-1.5 9.2-1.2 1.3-2.9 2-4.2 1.6-.8-.2-1.6-.9-1.8-1.5-.3-.8-.2-1.3.6-4.1.7-2.3.8-3 .7-4-.1-.6-.3-1-.7-1.4-.4-.4-.7-.5-1.4-.6-.8 0-1.2 0-1.7.5-.5.3-1 .9-1.3 1.6-.3.7-.4 1.1-.4 2.4 0 1 0 1 .2 1.8l.2.8L7 17c-1.8 7.7-1.7 7-1.7 9.5v2.2a17.9 17.9 0 1 1 5.2 1.3z"/>
  <path fill="none" d="M10.4 29.9L7 29.2l.8-1.7c.9-1.8 1-2.4 1.8-5.1l.5-1.9.3.2a6 6 0 0 0 2.4 1.4l1.5.1c1.6 0 2.5-.2 3.9-.9 2.7-1.4 4.7-4.5 5.2-8 .3-2 .2-4.3-.4-5.8l-1-2.1c-.5-.6-2.3-2.4-3-2.8-.6-.5-1.8-1-2.5-1.3-.6-.2-1.7-.5-2.3-.5h-3.8c-1.7.2-3.8 1-5.3 2-.7.4-2.2 1.9-2.6 2.5-.6 1-1.1 2-1.5 3.2-.3.9-.4 1.4-.4 3 0 1.4 0 1.5.2 2.1.5 1.9 1.1 3 2.3 4.1.8.8 1.4 1 1.7.7 0-.1.4-1 .5-1.8l.1-.5-.5-1a6.7 6.7 0 0 1-.9-3.6c0-1.6.4-2.8 1.3-4.2.4-.6 1.4-1.5 2-2 .9-.6 2-1 3.1-1.3h3.2a8 8 0 0 1 3.1 1.4 7 7 0 0 1 2.2 3c1.1 2.8.4 7-1.5 9.2-1.2 1.3-2.9 2-4.2 1.6-.8-.2-1.6-.9-1.8-1.5-.3-.8-.2-1.3.6-4.1.7-2.3.8-3 .7-4-.1-.6-.3-1-.7-1.4-.4-.4-.7-.5-1.4-.6-.8 0-1.2 0-1.7.5-.5.3-1 .9-1.3 1.6-.3.7-.4 1.1-.4 2.4 0 1 0 1 .2 1.8l.2.8L7 17c-1.8 7.7-1.7 7-1.7 9.5v2.2a17.9 17.9 0 1 1 5.2 1.3z"/>
  <path fill="none" d="M-5.2 38.8a11.4 11.4 0 0 1-7.7-4.6c-.8-1.2-1.5-2.7-1.8-4.3l-.2-.6v-16-17.6a11.3 11.3 0 0 1 9.7-10.6 1443.7 1443.7 0 0 1 35.1.2A11.2 11.2 0 0 1 38.7-6l.2.7v8.5a1194 1194 0 0 1-.2 26.8 11.5 11.5 0 0 1-6.9 8.1c-1 .5-1.9.7-2.9.7H-5.2zm19.5-9a18 18 0 1 0-9-1h.2v-.3c-.1-.7-.2-3.1-.1-3.8 0-.7.2-1.3 1.4-6.6l.9-3.4-.2-.5a6 6 0 0 1-.3-2.4c0-1 0-1.1.2-1.6.3-.8.6-1.2 1-1.7.7-.6 1-.8 1.8-.8l1 .1c.7.3 1.1 1 1.3 1.8.1.9 0 1.5-.8 4.4-.6 2-.6 2-.6 2.8l.1 1c.3.7 1 1.3 1.8 1.5h1.8c.6-.1 1.5-.6 2-1 1.1-1 2-2.7 2.4-4.6.4-2 .4-3.7-.1-5.1a7 7 0 0 0-5.4-4.7H10a7.7 7.7 0 0 0-6.3 7.3c-.1 1.5.2 2.8 1 4.3.3.3.4.6.4.7l-.6 2.2c-.2.5-1.7-.6-2.5-1.9-.6-.9-1.1-2-1.4-3.3V9.9C.9 8.5 1.4 7 2 6 4 2.7 7.8.8 12.3.7c3.1 0 6 1 8 3a9.7 9.7 0 0 1 3 7.4c0 2 0 2.6-.5 4.2-1.2 3.7-4 6.3-7.3 6.8l-2.8-.1a7 7 0 0 1-1-.4c-.5-.3-.7-.4-1.1-.9l-.6-.4A240.4 240.4 0 0 0 8.7 25c-.2.6-.8 2-1.5 3.1-.6 1.1-.6 1.1-.3 1.2.5.2 2.6.6 3.7.7l3.7-.1z"/>
  <path fill="none" d="M10.4 29.9L7 29.2l.8-1.7c.9-1.8 1-2.4 1.8-5.1l.5-1.9.3.2a6 6 0 0 0 2.4 1.4l1.5.1c1.6 0 2.5-.2 3.9-.9 2.7-1.4 4.7-4.5 5.2-8 .3-2 .2-4.3-.4-5.8l-1-2.1c-.5-.6-2.3-2.4-3-2.8-.6-.5-1.8-1-2.5-1.3-.6-.2-1.7-.5-2.3-.5h-3.8c-1.7.2-3.8 1-5.3 2-.7.4-2.2 1.9-2.6 2.5-.6 1-1.1 2-1.5 3.2-.3.9-.4 1.4-.4 3 0 1.4 0 1.5.2 2.1.5 1.9 1.1 3 2.3 4.1.8.8 1.4 1 1.7.7 0-.1.4-1 .5-1.8l.1-.5-.5-1a6.7 6.7 0 0 1-.9-3.6c0-1.6.4-2.8 1.3-4.2.4-.6 1.4-1.5 2-2 .9-.6 2-1 3.1-1.3h3.2a8 8 0 0 1 3.1 1.4 7 7 0 0 1 2.2 3c1.1 2.8.4 7-1.5 9.2-1.2 1.3-2.9 2-4.2 1.6-.8-.2-1.6-.9-1.8-1.5-.3-.8-.2-1.3.6-4.1.7-2.3.8-3 .7-4-.1-.6-.3-1-.7-1.4-.4-.4-.7-.5-1.4-.6-.8 0-1.2 0-1.7.5-.5.3-1 .9-1.3 1.6-.3.7-.4 1.1-.4 2.4 0 1 0 1 .2 1.8l.2.8L7 17c-1.8 7.7-1.7 7-1.7 9.5v2.2a17.9 17.9 0 1 1 5.2 1.3z"/>
  <path fill="none" d="M10.4 29.9L7 29.2l.8-1.7c.9-1.8 1-2.4 1.8-5.1l.5-1.9.3.2a6 6 0 0 0 2.4 1.4l1.5.1c1.6 0 2.5-.2 3.9-.9 2.7-1.4 4.7-4.5 5.2-8 .3-2 .2-4.3-.4-5.8l-1-2.1c-.5-.6-2.3-2.4-3-2.8-.6-.5-1.8-1-2.5-1.3-.6-.2-1.7-.5-2.3-.5h-3.8c-1.7.2-3.8 1-5.3 2-.7.4-2.2 1.9-2.6 2.5-.6 1-1.1 2-1.5 3.2-.3.9-.4 1.4-.4 3 0 1.4 0 1.5.2 2.1.5 1.9 1.1 3 2.3 4.1.8.8 1.4 1 1.7.7 0-.1.4-1 .5-1.8l.1-.5-.5-1a6.7 6.7 0 0 1-.9-3.6c0-1.6.4-2.8 1.3-4.2.4-.6 1.4-1.5 2-2 .9-.6 2-1 3.1-1.3h3.2a8 8 0 0 1 3.1 1.4 7 7 0 0 1 2.2 3c1.1 2.8.4 7-1.5 9.2-1.2 1.3-2.9 2-4.2 1.6-.8-.2-1.6-.9-1.8-1.5-.3-.8-.2-1.3.6-4.1.7-2.3.8-3 .7-4-.1-.6-.3-1-.7-1.4-.4-.4-.7-.5-1.4-.6-.8 0-1.2 0-1.7.5-.5.3-1 .9-1.3 1.6-.3.7-.4 1.1-.4 2.4 0 1 0 1 .2 1.8l.2.8L7 17c-1.8 7.7-1.7 7-1.7 9.5v2.2a17.9 17.9 0 1 1 5.2 1.3z"/>
  <path fill="none" d="M-5.2 38.8a11.4 11.4 0 0 1-7.7-4.6c-.8-1.2-1.5-2.7-1.8-4.3l-.2-.6v-16-17.6a11.3 11.3 0 0 1 9.7-10.6 1443.7 1443.7 0 0 1 35.1.2A11.2 11.2 0 0 1 38.7-6l.2.7v8.5a1194 1194 0 0 1-.2 26.8 11.5 11.5 0 0 1-6.9 8.1c-1 .5-1.9.7-2.9.7H-5.2zm19.5-9a18 18 0 1 0-9-1h.2v-.3c-.1-.7-.2-3.1-.1-3.8 0-.7.2-1.3 1.4-6.6l.9-3.4-.2-.5a6 6 0 0 1-.3-2.4c0-1 0-1.1.2-1.6.3-.8.6-1.2 1-1.7.7-.6 1-.8 1.8-.8l1 .1c.7.3 1.1 1 1.3 1.8.1.9 0 1.5-.8 4.4-.6 2-.6 2-.6 2.8l.1 1c.3.7 1 1.3 1.8 1.5h1.8c.6-.1 1.5-.6 2-1 1.1-1 2-2.7 2.4-4.6.4-2 .4-3.7-.1-5.1a7 7 0 0 0-5.4-4.7H10a7.7 7.7 0 0 0-6.3 7.3c-.1 1.5.2 2.8 1 4.3.3.3.4.6.4.7l-.6 2.2c-.2.5-1.7-.6-2.5-1.9-.6-.9-1.1-2-1.4-3.3V9.9C.9 8.5 1.4 7 2 6 4 2.7 7.8.8 12.3.7c3.1 0 6 1 8 3a9.7 9.7 0 0 1 3 7.4c0 2 0 2.6-.5 4.2-1.2 3.7-4 6.3-7.3 6.8l-2.8-.1a7 7 0 0 1-1-.4c-.5-.3-.7-.4-1.1-.9l-.6-.4A240.4 240.4 0 0 0 8.7 25c-.2.6-.8 2-1.5 3.1-.6 1.1-.6 1.1-.3 1.2.5.2 2.6.6 3.7.7l3.7-.1z"/>
  <path fill="none" d="M-5.2 38.8a11.4 11.4 0 0 1-7.7-4.6c-.8-1.2-1.5-2.7-1.8-4.3l-.2-.6v-16-17.6a11.3 11.3 0 0 1 9.7-10.6 1443.7 1443.7 0 0 1 35.1.2A11.2 11.2 0 0 1 38.7-6l.2.7v8.5a1194 1194 0 0 1-.2 26.8 11.5 11.5 0 0 1-6.9 8.1c-1 .5-1.9.7-2.9.7H-5.2zm19.5-9a18 18 0 1 0-9-1h.2v-.3c-.1-.7-.2-3.1-.1-3.8 0-.7.2-1.3 1.4-6.6l.9-3.4-.2-.5a6 6 0 0 1-.3-2.4c0-1 0-1.1.2-1.6.3-.8.6-1.2 1-1.7.7-.6 1-.8 1.8-.8l1 .1c.7.3 1.1 1 1.3 1.8.1.9 0 1.5-.8 4.4-.6 2-.6 2-.6 2.8l.1 1c.3.7 1 1.3 1.8 1.5h1.8c.6-.1 1.5-.6 2-1 1.1-1 2-2.7 2.4-4.6.4-2 .4-3.7-.1-5.1a7 7 0 0 0-5.4-4.7H10a7.7 7.7 0 0 0-6.3 7.3c-.1 1.5.2 2.8 1 4.3.3.3.4.6.4.7l-.6 2.2c-.2.5-1.7-.6-2.5-1.9-.6-.9-1.1-2-1.4-3.3V9.9C.9 8.5 1.4 7 2 6 4 2.7 7.8.8 12.3.7c3.1 0 6 1 8 3a9.7 9.7 0 0 1 3 7.4c0 2 0 2.6-.5 4.2-1.2 3.7-4 6.3-7.3 6.8l-2.8-.1a7 7 0 0 1-1-.4c-.5-.3-.7-.4-1.1-.9l-.6-.4A240.4 240.4 0 0 0 8.7 25c-.2.6-.8 2-1.5 3.1-.6 1.1-.6 1.1-.3 1.2.5.2 2.6.6 3.7.7l3.7-.1z"/>
  <path fill="none" d="M-5.2 38.8a11.4 11.4 0 0 1-7.7-4.6c-.8-1.2-1.5-2.7-1.8-4.3l-.2-.6v-16-17.6a11.3 11.3 0 0 1 9.7-10.6 1443.7 1443.7 0 0 1 35.1.2A11.2 11.2 0 0 1 38.7-6l.2.7v8.5a1194 1194 0 0 1-.2 26.8 11.5 11.5 0 0 1-6.9 8.1c-1 .5-1.9.7-2.9.7H-5.2zm19.5-9a18 18 0 1 0-9-1h.2v-.3c-.1-.7-.2-3.1-.1-3.8 0-.7.2-1.3 1.4-6.6l.9-3.4-.2-.5a6 6 0 0 1-.3-2.4c0-1 0-1.1.2-1.6.3-.8.6-1.2 1-1.7.7-.6 1-.8 1.8-.8l1 .1c.7.3 1.1 1 1.3 1.8.1.9 0 1.5-.8 4.4-.6 2-.6 2-.6 2.8l.1 1c.3.7 1 1.3 1.8 1.5h1.8c.6-.1 1.5-.6 2-1 1.1-1 2-2.7 2.4-4.6.4-2 .4-3.7-.1-5.1a7 7 0 0 0-5.4-4.7H10a7.7 7.7 0 0 0-6.3 7.3c-.1 1.5.2 2.8 1 4.3.3.3.4.6.4.7l-.6 2.2c-.2.5-1.7-.6-2.5-1.9-.6-.9-1.1-2-1.4-3.3V9.9C.9 8.5 1.4 7 2 6 4 2.7 7.8.8 12.3.7c3.1 0 6 1 8 3a9.7 9.7 0 0 1 3 7.4c0 2 0 2.6-.5 4.2-1.2 3.7-4 6.3-7.3 6.8l-2.8-.1a7 7 0 0 1-1-.4c-.5-.3-.7-.4-1.1-.9l-.6-.4A240.4 240.4 0 0 0 8.7 25c-.2.6-.8 2-1.5 3.1-.6 1.1-.6 1.1-.3 1.2.5.2 2.6.6 3.7.7l3.7-.1z"/>
  <path fill="none" d="M-5.2 38.8a11.4 11.4 0 0 1-7.7-4.6c-.8-1.2-1.5-2.7-1.8-4.3l-.2-.6v-16-17.6a11.3 11.3 0 0 1 9.7-10.6 1443.7 1443.7 0 0 1 35.1.2A11.2 11.2 0 0 1 38.7-6l.2.7v8.5a1194 1194 0 0 1-.2 26.8 11.5 11.5 0 0 1-6.9 8.1c-1 .5-1.9.7-2.9.7H-5.2zm19.5-9a18 18 0 1 0-9-1h.2v-.3c-.1-.7-.2-3.1-.1-3.8 0-.7.2-1.3 1.4-6.6l.9-3.4-.2-.5a6 6 0 0 1-.3-2.4c0-1 0-1.1.2-1.6.3-.8.6-1.2 1-1.7.7-.6 1-.8 1.8-.8l1 .1c.7.3 1.1 1 1.3 1.8.1.9 0 1.5-.8 4.4-.6 2-.6 2-.6 2.8l.1 1c.3.7 1 1.3 1.8 1.5h1.8c.6-.1 1.5-.6 2-1 1.1-1 2-2.7 2.4-4.6.4-2 .4-3.7-.1-5.1a7 7 0 0 0-5.4-4.7H10a7.7 7.7 0 0 0-6.3 7.3c-.1 1.5.2 2.8 1 4.3.3.3.4.6.4.7l-.6 2.2c-.2.5-1.7-.6-2.5-1.9-.6-.9-1.1-2-1.4-3.3V9.9C.9 8.5 1.4 7 2 6 4 2.7 7.8.8 12.3.7c3.1 0 6 1 8 3a9.7 9.7 0 0 1 3 7.4c0 2 0 2.6-.5 4.2-1.2 3.7-4 6.3-7.3 6.8l-2.8-.1a7 7 0 0 1-1-.4c-.5-.3-.7-.4-1.1-.9l-.6-.4A240.4 240.4 0 0 0 8.7 25c-.2.6-.8 2-1.5 3.1-.6 1.1-.6 1.1-.3 1.2.5.2 2.6.6 3.7.7l3.7-.1z"/>
  <path fill="none" d="M10.4 29.9L7 29.2l.8-1.7c.9-1.8 1-2.4 1.8-5.1l.5-1.9.3.2a6 6 0 0 0 2.4 1.4l1.5.1c1.6 0 2.5-.2 3.9-.9 2.7-1.4 4.7-4.5 5.2-8 .3-2 .2-4.3-.4-5.8l-1-2.1c-.5-.6-2.3-2.4-3-2.8-.6-.5-1.8-1-2.5-1.3-.6-.2-1.7-.5-2.3-.5h-3.8c-1.7.2-3.8 1-5.3 2-.7.4-2.2 1.9-2.6 2.5-.6 1-1.1 2-1.5 3.2-.3.9-.4 1.4-.4 3 0 1.4 0 1.5.2 2.1.5 1.9 1.1 3 2.3 4.1.8.8 1.4 1 1.7.7 0-.1.4-1 .5-1.8l.1-.5-.5-1a6.7 6.7 0 0 1-.9-3.6c0-1.6.4-2.8 1.3-4.2.4-.6 1.4-1.5 2-2 .9-.6 2-1 3.1-1.3h3.2a8 8 0 0 1 3.1 1.4 7 7 0 0 1 2.2 3c1.1 2.8.4 7-1.5 9.2-1.2 1.3-2.9 2-4.2 1.6-.8-.2-1.6-.9-1.8-1.5-.3-.8-.2-1.3.6-4.1.7-2.3.8-3 .7-4-.1-.6-.3-1-.7-1.4-.4-.4-.7-.5-1.4-.6-.8 0-1.2 0-1.7.5-.5.3-1 .9-1.3 1.6-.3.7-.4 1.1-.4 2.4 0 1 0 1 .2 1.8l.2.8L7 17c-1.8 7.7-1.7 7-1.7 9.5v2.2a17.9 17.9 0 1 1 5.2 1.3z"/>
  <path fill="none" d="M10.4 29.9L7 29.2l.8-1.7c.9-1.8 1-2.4 1.8-5.1l.5-1.9.3.2a6 6 0 0 0 2.4 1.4l1.5.1c1.6 0 2.5-.2 3.9-.9 2.7-1.4 4.7-4.5 5.2-8 .3-2 .2-4.3-.4-5.8l-1-2.1c-.5-.6-2.3-2.4-3-2.8-.6-.5-1.8-1-2.5-1.3-.6-.2-1.7-.5-2.3-.5h-3.8c-1.7.2-3.8 1-5.3 2-.7.4-2.2 1.9-2.6 2.5-.6 1-1.1 2-1.5 3.2-.3.9-.4 1.4-.4 3 0 1.4 0 1.5.2 2.1.5 1.9 1.1 3 2.3 4.1.8.8 1.4 1 1.7.7 0-.1.4-1 .5-1.8l.1-.5-.5-1a6.7 6.7 0 0 1-.9-3.6c0-1.6.4-2.8 1.3-4.2.4-.6 1.4-1.5 2-2 .9-.6 2-1 3.1-1.3h3.2a8 8 0 0 1 3.1 1.4 7 7 0 0 1 2.2 3c1.1 2.8.4 7-1.5 9.2-1.2 1.3-2.9 2-4.2 1.6-.8-.2-1.6-.9-1.8-1.5-.3-.8-.2-1.3.6-4.1.7-2.3.8-3 .7-4-.1-.6-.3-1-.7-1.4-.4-.4-.7-.5-1.4-.6-.8 0-1.2 0-1.7.5-.5.3-1 .9-1.3 1.6-.3.7-.4 1.1-.4 2.4 0 1 0 1 .2 1.8l.2.8L7 17c-1.8 7.7-1.7 7-1.7 9.5v2.2a17.9 17.9 0 1 1 5.2 1.3z"/>
  <path fill="none" d="M10.4 29.9L7 29.2l.8-1.7c.9-1.8 1-2.4 1.8-5.1l.5-1.9.3.2a6 6 0 0 0 2.4 1.4l1.5.1c1.6 0 2.5-.2 3.9-.9 2.7-1.4 4.7-4.5 5.2-8 .3-2 .2-4.3-.4-5.8l-1-2.1c-.5-.6-2.3-2.4-3-2.8-.6-.5-1.8-1-2.5-1.3-.6-.2-1.7-.5-2.3-.5h-3.8c-1.7.2-3.8 1-5.3 2-.7.4-2.2 1.9-2.6 2.5-.6 1-1.1 2-1.5 3.2-.3.9-.4 1.4-.4 3 0 1.4 0 1.5.2 2.1.5 1.9 1.1 3 2.3 4.1.8.8 1.4 1 1.7.7 0-.1.4-1 .5-1.8l.1-.5-.5-1a6.7 6.7 0 0 1-.9-3.6c0-1.6.4-2.8 1.3-4.2.4-.6 1.4-1.5 2-2 .9-.6 2-1 3.1-1.3h3.2a8 8 0 0 1 3.1 1.4 7 7 0 0 1 2.2 3c1.1 2.8.4 7-1.5 9.2-1.2 1.3-2.9 2-4.2 1.6-.8-.2-1.6-.9-1.8-1.5-.3-.8-.2-1.3.6-4.1.7-2.3.8-3 .7-4-.1-.6-.3-1-.7-1.4-.4-.4-.7-.5-1.4-.6-.8 0-1.2 0-1.7.5-.5.3-1 .9-1.3 1.6-.3.7-.4 1.1-.4 2.4 0 1 0 1 .2 1.8l.2.8L7 17c-1.8 7.7-1.7 7-1.7 9.5v2.2a17.9 17.9 0 1 1 5.2 1.3z"/>
  <path fill="none" d="M-5.2 38.8a11.4 11.4 0 0 1-7.7-4.6c-.8-1.2-1.5-2.7-1.8-4.3l-.2-.6v-16-17.6a11.3 11.3 0 0 1 9.7-10.6 1443.7 1443.7 0 0 1 35.1.2A11.2 11.2 0 0 1 38.7-6l.2.7v8.5a1194 1194 0 0 1-.2 26.8 11.5 11.5 0 0 1-6.9 8.1c-1 .5-1.9.7-2.9.7H-5.2zm19.5-9a18 18 0 1 0-9-1h.2v-.3c-.1-.7-.2-3.1-.1-3.8 0-.7.2-1.3 1.4-6.6l.9-3.4-.2-.5a6 6 0 0 1-.3-2.4c0-1 0-1.1.2-1.6.3-.8.6-1.2 1-1.7.7-.6 1-.8 1.8-.8l1 .1c.7.3 1.1 1 1.3 1.8.1.9 0 1.5-.8 4.4-.6 2-.6 2-.6 2.8l.1 1c.3.7 1 1.3 1.8 1.5h1.8c.6-.1 1.5-.6 2-1 1.1-1 2-2.7 2.4-4.6.4-2 .4-3.7-.1-5.1a7 7 0 0 0-5.4-4.7H10a7.7 7.7 0 0 0-6.3 7.3c-.1 1.5.2 2.8 1 4.3.3.3.4.6.4.7l-.6 2.2c-.2.5-1.7-.6-2.5-1.9-.6-.9-1.1-2-1.4-3.3V9.9C.9 8.5 1.4 7 2 6 4 2.7 7.8.8 12.3.7c3.1 0 6 1 8 3a9.7 9.7 0 0 1 3 7.4c0 2 0 2.6-.5 4.2-1.2 3.7-4 6.3-7.3 6.8l-2.8-.1a7 7 0 0 1-1-.4c-.5-.3-.7-.4-1.1-.9l-.6-.4A240.4 240.4 0 0 0 8.7 25c-.2.6-.8 2-1.5 3.1-.6 1.1-.6 1.1-.3 1.2.5.2 2.6.6 3.7.7l3.7-.1z"/>
  <path fill="none" d="M-5.2 38.8a11.4 11.4 0 0 1-7.7-4.6c-.8-1.2-1.5-2.7-1.8-4.3l-.2-.6v-16-17.6a11.3 11.3 0 0 1 9.7-10.6 1443.7 1443.7 0 0 1 35.1.2A11.2 11.2 0 0 1 38.7-6l.2.7v8.5a1194 1194 0 0 1-.2 26.8 11.5 11.5 0 0 1-6.9 8.1c-1 .5-1.9.7-2.9.7H-5.2zm19.5-9a18 18 0 1 0-9-1h.2v-.3c-.1-.7-.2-3.1-.1-3.8 0-.7.2-1.3 1.4-6.6l.9-3.4-.2-.5a6 6 0 0 1-.3-2.4c0-1 0-1.1.2-1.6.3-.8.6-1.2 1-1.7.7-.6 1-.8 1.8-.8l1 .1c.7.3 1.1 1 1.3 1.8.1.9 0 1.5-.8 4.4-.6 2-.6 2-.6 2.8l.1 1c.3.7 1 1.3 1.8 1.5h1.8c.6-.1 1.5-.6 2-1 1.1-1 2-2.7 2.4-4.6.4-2 .4-3.7-.1-5.1a7 7 0 0 0-5.4-4.7H10a7.7 7.7 0 0 0-6.3 7.3c-.1 1.5.2 2.8 1 4.3.3.3.4.6.4.7l-.6 2.2c-.2.5-1.7-.6-2.5-1.9-.6-.9-1.1-2-1.4-3.3V9.9C.9 8.5 1.4 7 2 6 4 2.7 7.8.8 12.3.7c3.1 0 6 1 8 3a9.7 9.7 0 0 1 3 7.4c0 2 0 2.6-.5 4.2-1.2 3.7-4 6.3-7.3 6.8l-2.8-.1a7 7 0 0 1-1-.4c-.5-.3-.7-.4-1.1-.9l-.6-.4A240.4 240.4 0 0 0 8.7 25c-.2.6-.8 2-1.5 3.1-.6 1.1-.6 1.1-.3 1.2.5.2 2.6.6 3.7.7l3.7-.1z"/>
  <path fill="none" d="M10.4 29.9L7 29.2l.8-1.7c.9-1.8 1-2.4 1.8-5.1l.5-1.9.3.2a6 6 0 0 0 2.4 1.4l1.5.1c1.6 0 2.5-.2 3.9-.9 2.7-1.4 4.7-4.5 5.2-8 .3-2 .2-4.3-.4-5.8l-1-2.1c-.5-.6-2.3-2.4-3-2.8-.6-.5-1.8-1-2.5-1.3-.6-.2-1.7-.5-2.3-.5h-3.8c-1.7.2-3.8 1-5.3 2-.7.4-2.2 1.9-2.6 2.5-.6 1-1.1 2-1.5 3.2-.3.9-.4 1.4-.4 3 0 1.4 0 1.5.2 2.1.5 1.9 1.1 3 2.3 4.1.8.8 1.4 1 1.7.7 0-.1.4-1 .5-1.8l.1-.5-.5-1a6.7 6.7 0 0 1-.9-3.6c0-1.6.4-2.8 1.3-4.2.4-.6 1.4-1.5 2-2 .9-.6 2-1 3.1-1.3h3.2a8 8 0 0 1 3.1 1.4 7 7 0 0 1 2.2 3c1.1 2.8.4 7-1.5 9.2-1.2 1.3-2.9 2-4.2 1.6-.8-.2-1.6-.9-1.8-1.5-.3-.8-.2-1.3.6-4.1.7-2.3.8-3 .7-4-.1-.6-.3-1-.7-1.4-.4-.4-.7-.5-1.4-.6-.8 0-1.2 0-1.7.5-.5.3-1 .9-1.3 1.6-.3.7-.4 1.1-.4 2.4 0 1 0 1 .2 1.8l.2.8L7 17c-1.8 7.7-1.7 7-1.7 9.5v2.2a17.9 17.9 0 1 1 5.2 1.3z"/>
</svg>
