<?xml version="1.0" encoding="UTF-8"?>
<svg width="86px" height="62px" viewBox="0 0 86 62" version="1.1" xmlns="http://www.w3.org/2000/svg" xmlns:xlink="http://www.w3.org/1999/xlink">
    <!-- Generator: Sketch 43.2 (39069) - http://www.bohemiancoding.com/sketch -->
    <title>Road-Icon</title>
    <desc>Created with Sketch.</desc>
    <defs></defs>
    <g id="Comps" stroke="none" stroke-width="1" fill="none" fill-rule="evenodd">
        <g id="Desktop-Homepage-(New-Branding-&amp;-Partners)" transform="translate(-837.000000, -2641.000000)" fill="#249CBC">
            <g id="Membership" transform="translate(96.000000, 2422.000000)">
                <g id="Bullet-3" transform="translate(648.000000, 219.000000)">
                    <g id="Road-Icon" transform="translate(93.000000, 0.000000)">
                        <path d="M84.2451129,52.6267967 L64.6625421,2.26701323 C64.4123924,1.65600313 64.0054669,1.12551375 63.4423419,0.675545075 C62.8780641,0.224984337 62.2832381,3.55271368e-15 61.6572875,3.55271368e-15 L45.7376229,3.55271368e-15 C46.1445485,3.55271368e-15 46.5047871,0.152160459 46.8177624,0.457665506 C47.1301613,0.763762617 47.3024995,1.12492168 47.3342004,1.5429189 L48.0391154,10.8051688 C48.0708164,11.2551375 47.9451651,11.6251775 47.6644672,11.9141048 C47.3820401,12.2036241 47.0379402,12.3480877 46.6304383,12.3480877 L38.8354512,12.3480877 C38.4285257,12.3480877 38.0844257,12.2036241 37.802575,11.9141048 C37.5207244,11.6251775 37.3956495,11.2551375 37.4273505,10.8051688 L38.131689,1.5429189 C38.1628137,1.12492168 38.3345754,0.763762617 38.6481271,0.457665506 C38.9611024,0.152752523 39.3207646,5.65614771e-15 39.7282666,5.65614771e-15 L23.808602,5.65614771e-15 C23.1826513,5.65614771e-15 22.5878254,0.224984337 22.024124,0.675545075 C21.460999,1.12492168 21.0540735,1.65600313 20.8033474,2.26701323 L1.2207766,52.6267967 C0.406925533,54.6202764 0,56.4852781 0,58.222394 C0,60.5699279 0.719900836,61.7433989 2.16027889,61.7433989 L35.2198083,61.7433989 C34.8128828,61.7433989 34.4687829,61.5906464 34.1869322,61.2857334 C33.9050815,60.9790442 33.7800066,60.6184772 33.8117076,60.1998879 L34.7506336,47.8523923 C34.7817582,47.433803 34.9540963,47.0726439 35.2670716,46.7665468 C35.5800469,46.4610418 35.9402855,46.3088813 36.3472111,46.3088813 L49.1198312,46.3088813 C49.5267567,46.3088813 49.8864189,46.4610418 50.1999706,46.7665468 C50.5129459,47.0726439 50.6852841,47.433803 50.7164087,47.8523923 L51.6564874,60.1998879 C51.6881884,60.6184772 51.5619608,60.9790442 51.2812628,61.2857334 C50.9994122,61.5906464 50.6553122,61.7433989 50.2478103,61.7433989 L83.3067634,61.7433989 C84.746565,61.7433989 85.4670423,60.5699279 85.4670423,58.222394 C85.4670423,56.4858702 85.0595403,54.6208684 84.2451129,52.6267967 L84.2451129,52.6267967 Z M49.8247461,35.6949492 C49.8552943,36.0809749 49.7302195,36.4024657 49.4489452,36.6594215 C49.1676709,36.9169694 48.8379805,37.0454473 48.462756,37.0454473 L37.0042863,37.0454473 C36.6284854,37.0454473 36.2993714,36.9169694 36.0180971,36.6594215 C35.7362464,36.4018737 35.6111715,36.0803829 35.6422962,35.6949492 L35.6422962,35.5019363 L36.7696989,20.0668267 C36.8008235,19.6488294 36.9731617,19.2870783 37.286137,18.9815733 C37.5991123,18.6760682 37.9593509,18.5233157 38.3662764,18.5233157 L47.1001894,18.5233157 C47.5076914,18.5233157 47.8673536,18.6754762 48.1809053,18.9815733 C48.4938806,19.2870783 48.6662187,19.6488294 48.6973433,20.0668267 L49.8241697,35.5019363 L49.8241697,35.6949492 L49.8247461,35.6949492 Z" id="Shape"></path>
                    </g>
                </g>
            </g>
        </g>
    </g>
</svg>