<?xml version="1.0" encoding="UTF-8"?>
<svg width="53px" height="53px" viewBox="0 0 53 53" version="1.1" xmlns="http://www.w3.org/2000/svg" xmlns:xlink="http://www.w3.org/1999/xlink">
    <!-- Generator: Sketch 42 (36781) - http://www.bohemiancoding.com/sketch -->
    <title>Icon-Twitter</title>
    <desc>Created with Sketch.</desc>
    <defs></defs>
    <g id="Symbols" stroke="none" stroke-width="1" fill="none" fill-rule="evenodd">
        <g id="Icon-Twitter" fill="#249CBC">
            <path d="M50.0844727,2.91548069 C48.1413526,0.971968069 45.800545,0 43.0633206,0 L9.93752647,0 C7.20030206,0 4.85949449,0.971968069 2.91552729,2.91548069 C0.971983602,4.85941683 0,7.20018699 0,9.93736765 L0,43.0622088 C0,45.7993895 0.971983602,48.1401597 2.91552729,50.0840958 C4.85949449,52.0280319 7.20030206,53 9.93752647,53 L43.0628971,53 C45.8001215,53 48.140929,52.0280319 50.0840492,50.0840958 C52.0280164,48.1401597 53,45.7993895 53,43.0622088 L53,9.93736765 C53,7.20018699 52.0280164,4.85899331 50.0844727,2.91548069 L50.0844727,2.91548069 Z M40.5437866,20.3926948 C40.5670803,20.5997938 40.5785154,20.9098072 40.5785154,21.3244289 C40.5785154,23.2569301 40.2964496,25.194937 39.733165,27.1384496 C39.1698804,29.0823858 38.3071655,30.9454304 37.1454439,32.7284307 C35.9841459,34.5110074 34.5979575,36.0869086 32.9881494,37.4552872 C31.3774942,38.8236657 29.4458091,39.9167592 27.1909766,40.7328736 C24.9369911,41.5502585 22.5212201,41.9585274 19.9449341,41.9585274 C15.9426487,41.9585274 12.2389465,40.8768689 8.83425096,38.7152458 C9.386524,38.7838553 9.96166724,38.8185835 10.5596807,38.8185835 C13.8953421,38.8185835 16.8972679,37.7835117 19.5658817,35.7129444 C18.001814,35.6900746 16.6041905,35.2076904 15.3734348,34.2636744 C14.1426791,33.3205053 13.2858935,32.1244976 12.8026546,30.6752275 C13.400668,30.7671304 13.8491781,30.8124466 14.1481848,30.8124466 C14.654294,30.8124466 15.2408723,30.7209672 15.9079199,30.5371615 C14.2286541,30.2144427 12.8140897,29.3813877 11.6638032,28.0354554 C10.5135168,26.6899467 9.93837351,25.1542795 9.93837351,23.4293009 L9.93837351,23.3602679 C11.1572706,23.9349784 12.3075571,24.2339803 13.3888094,24.2572737 C11.2953389,22.8537433 10.2488153,20.8411977 10.2488153,18.2187897 C10.2488153,16.9304556 10.5821274,15.711578 11.2491749,14.5613099 C13.066509,16.792813 15.2751776,18.5753898 17.8743338,19.9094636 C20.4734899,21.2435374 23.2573018,21.9914658 26.2244988,22.1524017 C26.1097242,21.7153337 26.0521252,21.1630694 26.0521252,20.4960325 C26.0521252,18.4944983 26.7594074,16.7868838 28.1739718,15.3719185 C29.5889597,13.9573768 31.297025,13.2496824 33.2981677,13.2496824 C35.414932,13.2496824 37.174667,14.0090457 38.5777962,15.5273487 C40.1651577,15.2283468 41.7072023,14.6413543 43.2018124,13.7676418 C42.6270926,15.5383601 41.5568519,16.8842924 39.9932077,17.8045915 C41.4878177,17.597069 42.8795119,17.2061641 44.1674431,16.6310301 C43.2013888,18.1035935 41.9930798,19.3571994 40.5437866,20.3926948 L40.5437866,20.3926948 Z" id="Shape"></path>
        </g>
    </g>
</svg>