<?xml version="1.0" encoding="UTF-8"?>
<svg width="54px" height="54px" viewBox="0 0 54 54" version="1.1" xmlns="http://www.w3.org/2000/svg" xmlns:xlink="http://www.w3.org/1999/xlink">
    <!-- Generator: Sketch 42 (36781) - http://www.bohemiancoding.com/sketch -->
    <title>Icon/Facebook</title>
    <desc>Created with Sketch.</desc>
    <defs></defs>
    <g id="Symbols" stroke="none" stroke-width="1" fill="none" fill-rule="evenodd">
        <g id="Icon/Facebook" fill="#249CBC">
            <g id="facebook26">
                <path d="M51.0294628,2.97048976 C49.04968,0.990307089 46.6647062,0 43.8758361,0 L10.125027,0 C7.33615682,0 4.95118307,0.990307089 2.97053723,2.97048976 C0.990322916,4.95110394 0,7.33603957 0,10.1248652 L0,43.8747033 C0,46.6635289 0.990322916,49.0484646 2.97053723,51.0290787 C4.95118307,53.0096929 7.33615682,54 10.125027,54 L43.8754045,54 C46.6642747,54 49.0492484,53.0096929 51.0290313,51.0290787 C53.0096771,49.0484646 54,46.6635289 54,43.8747033 L54,10.1248652 C54,7.33603957 53.0096771,4.95067243 51.0294628,2.97048976 L51.0294628,2.97048976 Z M45.9496888,27.7730436 L39.7971728,27.7730436 L39.7971728,50.097025 L30.5860909,50.097025 L30.5860909,27.7730436 L25.9805499,27.7730436 L25.9805499,20.0736757 L30.5860909,20.0736757 L30.5860909,15.4682084 C30.5860909,12.1633012 31.3597942,9.66746842 32.9063377,7.97984705 C34.4528812,6.29222569 37.0074396,5.44863077 40.5704445,5.44863077 L46.7229605,5.44863077 L46.7229605,13.1479987 L42.8561702,13.1479987 C41.5435069,13.1479987 40.7055082,13.3762656 40.342174,13.8336623 C39.9788399,14.2906275 39.7971728,15.0932293 39.7971728,16.2418993 L39.7971728,20.0736757 L46.7583446,20.0736757 L45.9496888,27.7730436 L45.9496888,27.7730436 Z" id="Shape"></path>
            </g>
        </g>
    </g>
</svg>