<?xml version="1.0" encoding="UTF-8"?>
<svg width="86px" height="81px" viewBox="0 0 86 81" version="1.1" xmlns="http://www.w3.org/2000/svg" xmlns:xlink="http://www.w3.org/1999/xlink">
    <!-- Generator: Sketch 43.2 (39069) - http://www.bohemiancoding.com/sketch -->
    <title>Flag-Icon</title>
    <desc>Created with Sketch.</desc>
    <defs></defs>
    <g id="Comps" stroke="none" stroke-width="1" fill="none" fill-rule="evenodd">
        <g id="Desktop-Homepage-(New-Branding-&amp;-Partners)" transform="translate(-517.000000, -2632.000000)" fill="#249CBC">
            <g id="Membership" transform="translate(96.000000, 2422.000000)">
                <g id="Bullet-2" transform="translate(328.000000, 210.000000)">
                    <g id="Flag-Icon" transform="translate(93.000000, 0.000000)">
                        <path d="M6.5703595,0.273119748 C4.82126531,0.273119748 3.32794349,0.924012605 2.09039403,2.22260767 C0.853452119,3.52247899 0.234373626,5.09100315 0.234373626,6.92818015 C0.234373626,8.14126576 0.522952904,9.25033613 1.100719,10.2553913 C1.67787755,11.2604464 2.44519466,12.0574711 3.40206279,12.6471035 L3.40206279,78.4670483 C3.40206279,78.9526654 3.55030141,79.3514968 3.84738619,79.6629044 C4.14447096,79.9749501 4.523573,80.1306539 4.98590738,80.1306539 L8.15359655,80.1306539 C8.61593093,80.1306539 8.9956405,79.9749501 9.29211774,79.6629044 C9.58920251,79.3514968 9.73744113,78.9526654 9.73744113,78.4670483 L9.73744113,12.6471035 C10.6943093,12.0574711 11.4616264,11.2604464 12.0387849,10.2553913 C12.616551,9.25033613 12.9051303,8.14062763 12.9051303,6.92818015 C12.9051303,5.09164128 12.2866593,3.52311712 11.0497174,2.22260767 C9.81216797,0.923374475 8.31884615,0.273119748 6.5703595,0.273119748 L6.5703595,0.273119748 Z" id="Shape"></path>
                        <path d="M84.2328148,7.39592962 C83.2097253,6.77247637 82.1872433,6.73801733 81.1629388,7.29255252 C80.8664615,7.46612395 80.3549168,7.760302 79.6295196,8.17636292 C73.4253689,12.0581092 68.3111366,13.9993015 64.285,13.9993015 C62.6021272,13.9993015 61.1331068,13.6700263 59.8797614,13.0114758 C56.184124,11.1053808 52.7357535,9.61470851 49.5346499,8.54009716 C46.3341538,7.46612395 42.8857834,6.92881828 39.190146,6.92881828 C36.7812684,6.92881828 34.2235447,7.25809349 31.51819,7.91664391 C28.8122276,8.57519433 26.2958163,9.43284139 23.9695636,10.4895851 C21.6433108,11.5469669 19.7617739,12.4480068 18.3267755,13.193343 C16.890562,13.9386791 15.5952967,14.6744433 14.4409796,15.4025499 C13.4178901,16.0955593 12.9063454,17.0489259 12.9063454,18.2620116 L12.9063454,56.8388997 C12.9063454,58.1209034 13.4342936,59.0914995 14.49019,59.7500499 C15.0181381,60.0276366 15.5460863,60.1654727 16.0740345,60.1654727 C16.6675965,60.1654727 17.2125557,60.0097689 17.7070895,59.6989995 C20.8419717,57.6882511 24.6117284,55.9199921 29.016967,54.3948608 C33.4228132,52.8697295 37.3086091,52.1071639 40.6743548,52.1071639 C42.5874835,52.1071639 44.4690204,52.3496534 46.3171429,52.8352705 C48.1646578,53.3202495 49.6664851,53.8237342 50.8214097,54.3425341 C51.9751193,54.8626103 53.6087818,55.6947321 55.7211821,56.8382616 L57.1069702,57.5663682 C59.4162119,58.7800919 62.023146,59.3869538 64.9265573,59.3869538 C69.909562,59.3869538 75.9976735,57.3768435 83.1914992,53.3559848 C83.4223626,53.2181486 83.703044,53.0618067 84.0329356,52.8882353 C85.1872527,52.2641439 85.7656264,51.2769564 85.7656264,49.9247584 L85.7656264,10.2553913 C85.7662339,9.04230567 85.2546892,8.08957721 84.2328148,7.39592962 L84.2328148,7.39592962 Z M19.2411162,20.1859743 C26.2368854,16.0955593 32.5722637,13.9125158 38.2484662,13.6349291 L38.2484662,23.8769196 C32.671292,24.1200473 26.3353061,26.1646166 19.2411162,30.0119039 L19.2411162,20.1859743 L19.2411162,20.1859743 Z M38.2484662,45.6090835 C32.3414003,46.0940625 26.0054144,48.0007957 19.2411162,51.328645 L19.2411162,41.7094695 C25.9398006,38.2093251 32.2757865,36.1813472 38.2484662,35.626812 L38.2484662,45.6090835 L38.2484662,45.6090835 Z M79.430248,47.9497453 C73.7212386,51.137844 68.8870801,52.7318934 64.9271648,52.7318934 C63.3111209,52.7318934 61.808686,52.4364391 60.422898,51.8474449 L60.422898,42.07448 C65.3402889,43.6340704 71.6750597,42.4043934 79.430248,38.3828965 L79.430248,47.9497453 L79.430248,47.9497453 Z M79.430248,25.7491938 C71.6434678,30.3239496 65.3068744,31.8835399 60.422898,30.4286029 L60.422898,42.0732038 C59.7631146,41.8658114 59.1197347,41.6054543 58.4927582,41.2934086 C54.961763,39.4562316 51.7029435,38.0351155 48.7169074,37.0300604 C45.7302637,36.0250053 42.5540691,35.5221586 39.1883234,35.5221586 L38.2478587,35.5221586 L38.2478587,23.9802967 C39.1056986,23.8762815 39.9143281,23.824593 40.6731397,23.824593 C41.3985369,23.824593 42.1251491,23.8596901 42.8511538,23.9286082 C43.5771586,23.9975263 44.2296515,24.0670825 44.8062025,24.1360005 C45.3833611,24.2055567 46.0346389,24.3350972 46.7618587,24.5258981 C47.4878634,24.7160609 48.0656295,24.863469 48.4945495,24.9674842 C48.9240769,25.0721376 49.5176389,25.2884638 50.2770581,25.617739 C51.0364772,25.9476523 51.5717159,26.1729123 51.8852041,26.294157 C52.1986923,26.4154018 52.7685604,26.6840546 53.5935934,27.1001155 C54.4180188,27.5161765 54.9380691,27.7765336 55.152529,27.8799107 C55.3675965,27.9839259 55.9362496,28.2787421 56.8603108,28.7643592 C57.7843721,29.2493382 58.3293312,29.5441544 58.4933658,29.6481696 C59.1203422,29.9602153 59.7637221,30.2205725 60.4235055,30.4279648 L60.4235055,20.2383009 C61.5128163,20.5152495 62.7995761,20.6543619 64.2843925,20.6543619 C68.8050628,20.6543619 73.8542889,19.0769039 79.4308556,15.9232642 L79.4308556,25.7491938 L79.430248,25.7491938 Z" id="Shape"></path>
                    </g>
                </g>
            </g>
        </g>
    </g>
</svg>