<?xml version="1.0" encoding="UTF-8"?>
<svg width="54px" height="54px" viewBox="0 0 54 54" version="1.1" xmlns="http://www.w3.org/2000/svg" xmlns:xlink="http://www.w3.org/1999/xlink">
    <!-- Generator: Sketch 42 (36781) - http://www.bohemiancoding.com/sketch -->
    <title>Icon/LinkedIn</title>
    <desc>Created with Sketch.</desc>
    <defs></defs>
    <g id="Symbols" stroke="none" stroke-width="1" fill="none" fill-rule="evenodd">
        <g id="Icon/LinkedIn" fill="#249CBC">
            <g id="linkedin9">
                <path d="M51.0294628,2.97048976 C49.04968,0.990307089 46.6647062,0 43.8758361,0 L10.125027,0 C7.33615682,0 4.95118307,0.990307089 2.97053723,2.97048976 C0.990322916,4.95110394 0,7.33603957 0,10.1248652 L0,43.8747033 C0,46.6635289 0.990322916,49.0484646 2.97053723,51.0290787 C4.95118307,53.0096929 7.33615682,54 10.125027,54 L43.8754045,54 C46.6642747,54 49.0492484,53.0096929 51.0290313,51.0290787 C53.0096771,49.0484646 54,46.6635289 54,43.8747033 L54,10.1248652 C54,7.33603957 53.0096771,4.95067243 51.0294628,2.97048976 L51.0294628,2.97048976 Z M16.4531688,45.210647 L8.3320894,45.210647 L8.3320894,20.8119831 L16.4531688,20.8119831 L16.4531688,45.210647 L16.4531688,45.210647 Z M15.7152812,16.2949745 C14.8716728,17.1036175 13.7583686,17.5079389 12.3753686,17.5079389 L12.3399845,17.5079389 C11.0040195,17.5079389 9.92048969,17.1036175 9.08810062,16.2949745 C8.25571156,15.4863316 7.83973278,14.4843739 7.83973278,13.2891013 C7.83973278,12.0705273 8.26779393,11.0625285 9.1230532,10.2655362 C9.97874398,9.46854399 11.086007,9.06983211 12.4452737,9.06983211 C13.8045405,9.06983211 14.894543,9.46854399 15.7148496,10.2655362 C16.5351563,11.0625285 16.9571763,12.0705273 16.980478,13.2891013 C16.980478,14.4839424 16.5588896,15.4859001 15.7152812,16.2949745 L15.7152812,16.2949745 Z M45.6683421,45.210647 L37.5472627,45.210647 L37.5472627,32.1679359 C37.5472627,28.4889127 36.1879959,26.6485381 33.4690309,26.6485381 C32.4381458,26.6485381 31.5708041,26.9354898 30.867869,27.5098248 C30.1640709,28.0837282 29.6367617,28.781474 29.2855099,29.6017676 C29.1215349,30.0237808 29.0395474,30.6796705 29.0395474,31.5702996 L29.0395474,45.210647 L20.918468,45.210647 C20.9888046,30.4919652 20.9888046,22.3589334 20.918468,20.8119831 L29.0395474,20.8119831 L29.0395474,24.2566983 C30.7470453,21.5869685 33.1717183,20.2492988 36.3170184,20.2492988 C39.1296218,20.2492988 41.3916143,21.1753114 43.1025643,23.0264737 C44.8135144,24.8780675 45.6687736,27.6086397 45.6687736,31.2173274 L45.6687736,45.210647 L45.6683421,45.210647 Z" id="Shape"></path>
            </g>
        </g>
    </g>
</svg>