<?xml version="1.0" encoding="UTF-8"?>
<svg width="86px" height="80px" viewBox="0 0 86 80" version="1.1" xmlns="http://www.w3.org/2000/svg" xmlns:xlink="http://www.w3.org/1999/xlink">
    <!-- Generator: Sketch 43.2 (39069) - http://www.bohemiancoding.com/sketch -->
    <title>Shared-Icon</title>
    <desc>Created with Sketch.</desc>
    <defs></defs>
    <g id="Comps" stroke="none" stroke-width="1" fill="none" fill-rule="evenodd">
        <g id="Desktop-Homepage-(New-Branding-&amp;-Partners)" transform="translate(-197.000000, -2633.000000)" fill="#249CBC">
            <g id="Membership" transform="translate(96.000000, 2422.000000)">
                <g id="Bullet-1" transform="translate(8.000000, 210.000000)">
                    <g id="Shared-Icon" transform="translate(93.000000, 0.000000)">
                        <path d="M17.3758222,23.7866571 C20.519873,23.7866571 23.203619,22.6744733 25.4276063,20.4490133 C27.6521397,18.2235532 28.7644063,15.5381429 28.7644063,12.3933286 C28.7644063,9.24851423 27.6521397,6.5631039 25.4276063,4.33764384 C23.203619,2.11218377 20.519873,0.999453741 17.3758222,0.999453741 C14.2317714,0.999453741 11.5480254,2.11218377 9.32349206,4.33764384 C7.09950476,6.5631039 5.9872381,9.24796797 5.9872381,12.3933286 C5.9872381,15.5386891 7.09950476,18.2235532 9.32349206,20.4490133 C11.5480254,22.6739271 14.2317714,23.7866571 17.3758222,23.7866571 L17.3758222,23.7866571 Z" id="Shape"></path>
                        <path d="M30.9217778,41.5673947 C34.2580317,44.9044923 38.2839238,46.5738605 43,46.5738605 C47.7160762,46.5738605 51.7419683,44.9044923 55.0782222,41.5673947 C58.4144762,38.2286584 60.0826032,34.2010891 60.0826032,29.4835945 C60.0826032,24.7660999 58.4144762,20.7385307 55.0782222,17.4003406 C51.7419683,14.0621505 47.7160762,12.3933286 43,12.3933286 C38.2839238,12.3933286 34.2580317,14.0626967 30.9217778,17.4003406 C27.5855238,20.7379844 25.9168508,24.7655536 25.9168508,29.4835945 C25.9168508,34.2016354 27.5855238,38.2292046 30.9217778,41.5673947 L30.9217778,41.5673947 Z" id="Shape"></path>
                        <path d="M68.6252698,23.7866571 C71.7682286,23.7866571 74.4525206,22.6744733 76.677054,20.4490133 C78.9010413,18.2235532 80.0127619,15.5381429 80.0127619,12.3933286 C80.0127619,9.24851423 78.9010413,6.5631039 76.677054,4.33764384 C74.4525206,2.11218377 71.7682286,0.999453741 68.6252698,0.999453741 C65.480673,0.999453741 62.796927,2.11218377 60.5723937,4.33764384 C58.3489524,6.5631039 57.2366857,9.24796797 57.2366857,12.3933286 C57.2366857,15.5386891 58.3489524,18.2235532 60.5723937,20.4490133 C62.796927,22.6739271 65.480673,23.7866571 68.6252698,23.7866571 L68.6252698,23.7866571 Z" id="Shape"></path>
                        <path d="M80.1907683,23.7872034 C80.0133079,23.7872034 79.3684444,24.0985711 78.2561778,24.7218529 C77.1444571,25.3451347 75.698019,25.9755178 73.9190476,26.6135486 C72.1400762,27.2510331 70.3747556,27.5700485 68.6252698,27.5700485 C66.6377143,27.5700485 64.6665397,27.2291827 62.7084698,26.5463587 C62.8564444,27.6437935 62.9307048,28.6232362 62.9307048,29.4835945 C62.9307048,33.6078516 61.7294349,37.4054457 59.3263492,40.8769231 C64.1314286,41.0255056 68.060673,42.9243026 71.1162667,46.5744067 L77.0772952,46.5744067 C79.5093206,46.5744067 81.5558476,45.9724291 83.2163302,44.7712051 C84.8768127,43.569981 85.707327,41.8115726 85.707327,39.4976185 C85.707873,29.0236443 83.8693841,23.7866571 80.1907683,23.7872034 L80.1907683,23.7872034 Z" id="Shape"></path>
                        <path d="M73.5417397,59.7692982 C73.2305016,58.0332864 72.8368127,56.4234605 72.3623111,54.9403667 C71.8878095,53.4567267 71.2500444,52.0107785 70.4501079,50.6014297 C69.6490794,49.1926272 68.7295619,47.9903106 67.6910095,46.9961189 C66.6524571,46.0019271 65.3845714,45.2087587 63.8873524,44.6149749 C62.3895873,44.0217374 60.7356571,43.7251187 58.9272,43.7251187 C58.6301587,43.7251187 57.9929397,44.044134 57.0139048,44.6821648 C56.0348698,45.3196493 54.953181,46.0325176 53.766654,46.8180384 C52.580127,47.6035591 50.9944508,48.3158811 49.0063492,48.9539119 C47.0182476,49.5919427 45.0164952,49.9109581 43.000546,49.9109581 C40.9840508,49.9109581 38.9817524,49.5919427 36.9947429,48.9539119 C35.0071873,48.3158811 33.4209651,47.6035591 32.2344381,46.8180384 C31.0479111,46.0325176 29.9656762,45.3196493 28.9871873,44.6821648 C28.0081524,44.044134 27.3709333,43.7251187 27.0738921,43.7251187 C25.2648889,43.7251187 23.6115048,44.0217374 22.1137397,44.6149749 C20.6159746,45.2087587 19.3480889,46.0019271 18.3100825,46.9961189 C17.2715302,47.9897644 16.3525587,49.1926272 15.5515302,50.6014297 C14.7510476,52.0107785 14.1132825,53.4561804 13.638781,54.9403667 C13.1642794,56.4234605 12.7716825,58.0332864 12.4598984,59.7692982 C12.1481143,61.50531 11.9406222,63.121691 11.8368762,64.6206263 C11.7331302,66.1190154 11.6812571,67.6545501 11.6812571,69.2272303 C11.6812571,72.7872017 12.7634921,75.5987979 14.9285079,77.6603802 C17.0940698,79.7219625 19.9711111,80.7532999 23.5590857,80.7532999 L62.4409143,80.7532999 C66.0294349,80.7532999 68.9059302,79.7219625 71.0720381,77.6603802 C73.237054,75.5987979 74.3192889,72.7872017 74.3192889,69.2272303 C74.3192889,67.6545501 74.2668698,66.1195616 74.1647619,64.6206263 C74.0599238,63.121691 73.8524317,61.50531 73.5417397,59.7692982 L73.5417397,59.7692982 Z" id="Shape"></path>
                        <path d="M26.6731048,40.8769231 C24.2705651,37.4054457 23.0698413,33.6078516 23.0703873,29.4835945 C23.0703873,28.6232362 23.1446476,27.6443397 23.2926222,26.5463587 C21.3350984,27.2286365 19.3628317,27.5700485 17.3758222,27.5700485 C15.6257905,27.5700485 13.8615619,27.2510331 12.0820444,26.6135486 C10.303073,25.9755178 8.85663492,25.3451347 7.74491429,24.7218529 C6.63264762,24.0985711 5.9872381,23.7872034 5.80923175,23.7872034 C2.13170794,23.7872034 0.292673016,29.0241905 0.292673016,39.4976185 C0.292673016,41.8115726 1.1231873,43.569981 2.78366984,44.7712051 C4.44469841,45.9724291 6.4912254,46.5738605 8.92270476,46.5738605 L14.8842794,46.5738605 C17.939327,42.9243026 21.8685714,41.0255056 26.6731048,40.8769231 L26.6731048,40.8769231 Z" id="Shape"></path>
                    </g>
                </g>
            </g>
        </g>
    </g>
</svg>