<?xml version="1.0" encoding="UTF-8"?>
<svg width="86px" height="75px" viewBox="0 0 86 75" version="1.1" xmlns="http://www.w3.org/2000/svg" xmlns:xlink="http://www.w3.org/1999/xlink">
    <!-- Generator: Sketch 43.2 (39069) - http://www.bohemiancoding.com/sketch -->
    <title>Suitcase-Icon</title>
    <desc>Created with Sketch.</desc>
    <defs></defs>
    <g id="Comps" stroke="none" stroke-width="1" fill="none" fill-rule="evenodd">
        <g id="Desktop-Homepage-(New-Branding-&amp;-Partners)" transform="translate(-1157.000000, -2635.000000)" fill="#249CBC">
            <g id="Membership" transform="translate(96.000000, 2422.000000)">
                <g id="Bullet-4" transform="translate(967.000000, 213.000000)">
                    <g id="Suitcase-Icon" transform="translate(94.000000, 0.000000)">
                        <path d="M3.16727397,15.7976959 C1.05556164,17.9217907 0,20.464187 0,23.4242923 L0,63.5865701 C0,66.5478604 1.05556164,69.0902567 3.16727397,71.2137591 C5.2789863,73.3384463 7.80656164,74.399605 10.75,74.399605 L13.8212603,74.399605 L13.8212603,12.6112574 L10.75,12.6112574 C7.8059726,12.6112574 5.27839726,13.6736011 3.16727397,15.7976959 L3.16727397,15.7976959 Z" id="Shape"></path>
                        <path d="M61.4281507,4.88808427 C61.4281507,3.6005925 60.9804795,2.50684661 60.0845479,1.60566162 C59.1892055,0.704476629 58.1012466,0.254180382 56.8218493,0.254180382 L29.1787397,0.254180382 C27.8993425,0.254180382 26.8113836,0.704476629 25.9154521,1.60566162 C25.0195205,2.50625411 24.5718493,3.6005925 24.5718493,4.88808427 L24.5718493,12.6112574 L18.4287397,12.6112574 L18.4287397,74.399605 L67.5718493,74.399605 L67.5718493,12.6112574 L61.4281507,12.6112574 L61.4281507,4.88808427 L61.4281507,4.88808427 Z M55.2856301,12.6112574 L30.7143699,12.6112574 L30.7143699,6.43271889 L55.2856301,6.43271889 L55.2856301,12.6112574 L55.2856301,12.6112574 Z" id="Shape"></path>
                        <path d="M82.832726,15.7976959 C80.7210137,13.6736011 78.1934384,12.6112574 75.25,12.6112574 L72.1781507,12.6112574 L72.1781507,74.399605 L75.25,74.399605 C78.1934384,74.399605 80.7210137,73.3384463 82.832726,71.2137591 C84.9438493,69.0902567 86,66.5478604 86,63.5865701 L86,23.4242923 C86,20.464187 84.9438493,17.9217907 82.832726,15.7976959 L82.832726,15.7976959 Z" id="Shape"></path>
                    </g>
                </g>
            </g>
        </g>
    </g>
</svg>